<svg xmlns="http://www.w3.org/2000/svg" width="33.999" height="46.03" viewBox="0 0 33.999 46.03">
  <g id="_03-airtime" data-name="03-airtime" transform="translate(-494.356 -77.221)">
    <path id="Path_1419" data-name="Path 1419" d="M1526.58,767.249V733.885" transform="translate(-1015.225 -645.328)" fill="none" stroke="#010101" stroke-linecap="round" stroke-linejoin="round" stroke-miterlimit="22.926" stroke-width="2"/>
    <path id="Path_1420" data-name="Path 1420" d="M804.089,2320.52l-11.326,9.248-11.326-9.248" transform="translate(-281.409 -2207.847)" fill="none" stroke="#010101" stroke-linecap="round" stroke-linejoin="round" stroke-miterlimit="22.926" stroke-width="2"/>
    <path id="Path_1421" data-name="Path 1421" d="M1185.1,1483.79l-5.353,4.371-5.353-4.371" transform="translate(-668.388 -1383.835)" fill="none" stroke="#010101" stroke-linecap="round" stroke-linejoin="round" stroke-miterlimit="22.926" stroke-width="2"/>
    <path id="Path_1422" data-name="Path 1422" d="M1003.583,1882.42l-8.2,6.695-8.2-6.695" transform="translate(-484.03 -1776.406)" fill="none" stroke="#010101" stroke-linecap="round" stroke-linejoin="round" stroke-miterlimit="22.926" stroke-width="2"/>
    <path id="Path_1423" data-name="Path 1423" d="M527.024,767.249l-15.669-33.364-15.669,33.364" transform="translate(0 -645.328)" fill="none" stroke="#010101" stroke-linecap="round" stroke-linejoin="round" stroke-miterlimit="22.926" stroke-width="2"/>
    <path id="Path_1424" data-name="Path 1424" d="M1346.868,365.417a2.774,2.774,0,1,1,2.774-2.774A2.774,2.774,0,0,1,1346.868,365.417Z" transform="translate(-835.513 -276.998)" fill="none" stroke="#010101" stroke-linecap="round" stroke-linejoin="round" stroke-miterlimit="22.926" stroke-width="2"/>
    <path id="Path_1425" data-name="Path 1425" d="M664.662,78.6a13.488,13.488,0,0,1,0,14.1m-22.984,0a13.49,13.49,0,0,1,0-14.1" transform="translate(-141.815)" fill="none" stroke="#cc3533" stroke-linecap="round" stroke-linejoin="round" stroke-miterlimit="22.926" stroke-width="2"/>
    <path id="Path_1426" data-name="Path 1426" d="M872.952,190.681a10.229,10.229,0,0,1,0,10.69m-17.429,0a10.229,10.229,0,0,1,0-10.69" transform="translate(-352.883 -110.38)" fill="none" stroke="#cc3533" stroke-linecap="round" stroke-linejoin="round" stroke-miterlimit="22.926" stroke-width="2"/>
    <path id="Path_1427" data-name="Path 1427" d="M1090.52,307.74a6.822,6.822,0,0,1,0,7.132m-11.628,0a6.823,6.823,0,0,1,0-7.132" transform="translate(-573.351 -225.66)" fill="none" stroke="#cc3533" stroke-linecap="round" stroke-linejoin="round" stroke-miterlimit="22.926" stroke-width="2"/>
  </g>
</svg>
