<svg xmlns="http://www.w3.org/2000/svg" width="60.509" height="61.118" viewBox="0 0 60.509 61.118">
  <g id="_4230294_award_badge_quality_icon" data-name="4230294_award_badge_quality_icon" transform="translate(-7.1 -5.868)">
    <path id="Path_1517" data-name="Path 1517" d="M73,48.267a2.169,2.169,0,0,0,.9.15,2.31,2.31,0,0,0,2.227-2.352,8.448,8.448,0,0,1,5.931-8.208,2.234,2.234,0,0,0,.726-.375,2.272,2.272,0,0,0,.9-1.5,2.382,2.382,0,0,0-.425-1.777,8.446,8.446,0,0,1-.025-10.135l.275-.35.125-.375a2.352,2.352,0,0,0-1.526-2.928,8.462,8.462,0,0,1-5.931-8.183,2.686,2.686,0,0,0-.125-.8,2.437,2.437,0,0,0-1.2-1.351,2.359,2.359,0,0,0-1.752-.1,8.426,8.426,0,0,1-2.728.45,8.46,8.46,0,0,1-6.932-3.578,2.855,2.855,0,0,0-.551-.551,2.329,2.329,0,0,0-3.253.551,8.494,8.494,0,0,1-6.932,3.578A8.061,8.061,0,0,1,50,9.98a2.411,2.411,0,0,0-2.427.551,2.329,2.329,0,0,0-.676,1.652,8.4,8.4,0,0,1-5.931,8.183,2.347,2.347,0,0,0-1.226,3.654,8.483,8.483,0,0,1,0,10.16,2.485,2.485,0,0,0-.35.676,2.511,2.511,0,0,0,.15,1.8A2.382,2.382,0,0,0,40.9,37.782a8.445,8.445,0,0,1,5.931,8.158,1.958,1.958,0,0,0,.125.851,2.437,2.437,0,0,0,1.2,1.351,2.366,2.366,0,0,0,1.752.1,8.842,8.842,0,0,1,2.778-.45,8.383,8.383,0,0,1,6.907,3.578,2.868,2.868,0,0,0,.551.551,2.4,2.4,0,0,0,1.351.425,2.152,2.152,0,0,0,.4-.025,2.259,2.259,0,0,0,1.5-.951A8.465,8.465,0,0,1,73,48.267Zm-11.536,1.6a10.9,10.9,0,0,0-8.809-4.5,10.428,10.428,0,0,0-3.4.551,10.824,10.824,0,0,0-7.507-10.36,10.89,10.89,0,0,0,.025-12.838A10.893,10.893,0,0,0,49.3,12.357a10.8,10.8,0,0,0,3.353.526A10.987,10.987,0,0,0,61.49,8.4a11,11,0,0,0,8.859,4.479,9.822,9.822,0,0,0,3.353-.551,10.909,10.909,0,0,0,7.482,10.36,10.93,10.93,0,0,0,0,12.838,10.871,10.871,0,0,0-7.507,10.36A10.914,10.914,0,0,0,61.465,49.869Z" transform="translate(-24.136)" fill="#cc3533"/>
    <path id="Path_1518" data-name="Path 1518" d="M104.446,63.534a15.725,15.725,0,0,1-8.458-8.408,1.819,1.819,0,0,0-3.353-.025,15.885,15.885,0,0,1-8.408,8.408A1.793,1.793,0,0,0,83.1,65.161a1.83,1.83,0,0,0,1.1,1.677,16.6,16.6,0,0,1,8.408,8.508,1.821,1.821,0,0,0,1.652,1.1h0a1.77,1.77,0,0,0,1.652-1.1,16.7,16.7,0,0,1,8.533-8.483,1.848,1.848,0,0,0,1.076-1.677A1.711,1.711,0,0,0,104.446,63.534Zm-10.16,9.634A19.387,19.387,0,0,0,86.4,65.186,18.23,18.23,0,0,0,94.311,57.3a18.01,18.01,0,0,0,7.958,7.908A19.267,19.267,0,0,0,94.286,73.169Z" transform="translate(-56.981 -36.087)"/>
    <path id="Path_1519" data-name="Path 1519" d="M30,162.486a1.24,1.24,0,0,0-1.7.35l-6.556,10.035-3.278-6.732-6.832-.025,6.857-10.51a1.228,1.228,0,1,0-2.052-1.351L7.1,168.566l9.835.025,4.5,9.234,8.909-13.638A1.213,1.213,0,0,0,30,162.486Z" transform="translate(0 -110.84)"/>
    <path id="Path_1520" data-name="Path 1520" d="M169.2,154.233a1.228,1.228,0,0,0-2.052,1.351l6.882,10.51-6.857.025-3.278,6.732-6.556-10.035a1.228,1.228,0,0,0-2.052,1.351l8.934,13.638,4.5-9.234,9.835-.025Z" transform="translate(-110.947 -110.821)"/>
  </g>
</svg>
