<svg xmlns="http://www.w3.org/2000/svg" width="26.023" height="24.86" viewBox="0 0 26.023 24.86">
  <g id="ic-shopping-bag" transform="translate(-1.525 -2)">
    <path id="Path_330" data-name="Path 330" d="M24.042,24.78H5.068A2.54,2.54,0,0,1,2.6,21.656l3.061-12.7A2.54,2.54,0,0,1,8.091,7H21.02a2.54,2.54,0,0,1,2.426,1.956l3.023,12.7a2.54,2.54,0,0,1-2.426,3.124Z" transform="translate(0 1.08)" fill="none" stroke="#0e263e" stroke-linecap="round" stroke-linejoin="round" stroke-width="2"/>
    <path id="Path_331" data-name="Path 331" d="M7.56,8.08,8.7,5.769A5.08,5.08,0,0,1,13.2,3h0a5.08,5.08,0,0,1,4.5,2.769L18.838,8.08" transform="translate(1.356)" fill="none" stroke="#0e263e" stroke-linecap="round" stroke-linejoin="round" stroke-width="2"/>
  </g>
</svg>
