<svg xmlns="http://www.w3.org/2000/svg" width="29.34" height="29.34" viewBox="0 0 29.34 29.34">
  <path id="Path_1428" data-name="Path 1428" d="M15.643,22.157a1.128,1.128,0,0,1-.8-.327l-4.514-4.514a1.133,1.133,0,1,1,1.6-1.6l3.713,3.724,7.1-7.109a1.133,1.133,0,1,1,1.6,1.6l-7.9,7.9A1.128,1.128,0,0,1,15.643,22.157Z" transform="translate(-2.666 -2.406)" fill="#d0021b"/>
  <path id="Path_1429" data-name="Path 1429" d="M17.67,32.34A14.67,14.67,0,1,1,32.34,17.67,14.67,14.67,0,0,1,17.67,32.34Zm0-27.083A12.413,12.413,0,1,0,30.083,17.67,12.413,12.413,0,0,0,17.67,5.257Z" transform="translate(-3 -3)" fill="#d0021b"/>
</svg>
