<svg xmlns="http://www.w3.org/2000/svg" width="39.032" height="45.324" viewBox="0 0 39.032 45.324">
  <g id="_01-electricity" data-name="01-electricity" transform="translate(-312.484 -124.586)">
    <path id="Path_1411" data-name="Path 1411" d="M313.484,1999.418h32.483c6.061,0,6.07-9.306,0-9.306H336.2a4.944,4.944,0,0,1-4.934-4.934v-.186" transform="translate(0 -1830.508)" fill="none" stroke="#010101" stroke-linecap="round" stroke-linejoin="round" stroke-miterlimit="22.926" stroke-width="2"/>
    <path id="Path_1412" data-name="Path 1412" d="M1105.661,136.109V125.586m-11.291,10.523V125.586" transform="translate(-768.75 0)" fill="none" stroke="#010101" stroke-linecap="round" stroke-linejoin="round" stroke-miterlimit="22.926" stroke-width="2"/>
    <path id="Path_1413" data-name="Path 1413" d="M1116.39,1115.454H1127m-10.606-4.7H1127" transform="translate(-790.428 -969.853)" fill="none" stroke="#cc3533" stroke-linecap="round" stroke-linejoin="round" stroke-miterlimit="22.926" stroke-width="2"/>
    <path id="Path_1414" data-name="Path 1414" d="M800.618,802.708v7.836a10.569,10.569,0,0,1-10.538,10.538h0a10.569,10.569,0,0,1-10.538-10.538v-7.836Z" transform="translate(-458.815 -666.599)" fill="none" stroke="#010101" stroke-linecap="round" stroke-linejoin="round" stroke-miterlimit="22.926" stroke-width="2"/>
  </g>
</svg>
