<svg id="_4._Icons_Twitter" data-name="4. Icons / Twitter" xmlns="http://www.w3.org/2000/svg" width="24.999" height="24.999" viewBox="0 0 24.999 24.999">
  <path id="_Icon_Color_2" data-name="🔹 Icon Color 2" d="M12.351,25H4a4,4,0,0,1-4-4V4A4,4,0,0,1,4,0H21a4,4,0,0,1,4,4V21a4,4,0,0,1-4,4H15.886V16.447h2.948l.441-3.333H15.886V10.985c0-.973.289-1.622,1.7-1.622H19.4V6.381a24.963,24.963,0,0,0-2.642-.131,4.086,4.086,0,0,0-4.4,4.406v2.458H9.4v3.333h2.956V25Z" transform="translate(0 0)" fill="#969696"/>
</svg>
