<svg id="_4._Icons_Twitter" data-name="4. Icons / Twitter" xmlns="http://www.w3.org/2000/svg" width="25" height="25" viewBox="0 0 25 25">
  <path id="_Icon_Color" data-name="🔹 Icon Color" d="M12.5,25c-3.364,0-3.81-.014-5.154-.074C2.8,24.716.284,22.2.075,17.655.014,16.315,0,15.871,0,12.5S.015,8.681.077,7.346C.285,2.8,2.8.284,7.347.075,8.686.014,9.13,0,12.5,0s3.82.015,5.156.077c4.551.208,7.065,2.723,7.27,7.271C24.986,8.69,25,9.136,25,12.5s-.014,3.815-.075,5.155c-.206,4.547-2.72,7.061-7.27,7.271C16.311,24.986,15.865,25,12.5,25Zm0-18.918A6.419,6.419,0,1,0,18.919,12.5,6.425,6.425,0,0,0,12.5,6.082Zm6.674-1.754a1.5,1.5,0,1,0,1.5,1.5A1.5,1.5,0,0,0,19.174,4.328ZM12.5,16.667A4.167,4.167,0,1,1,16.667,12.5,4.172,4.172,0,0,1,12.5,16.667Z" transform="translate(0 0)" fill="#969696"/>
</svg>
