<svg xmlns="http://www.w3.org/2000/svg" xmlns:xlink="http://www.w3.org/1999/xlink" width="47.031" height="60.941" viewBox="0 0 47.031 60.941">
  <defs>
    <clipPath id="clip-path">
      <rect x="-2" y="-2" width="47.031" height="60.941" fill="none"/>
    </clipPath>
  </defs>
  <g id="Scroll_Group_1" data-name="Scroll Group 1" transform="translate(2 2)" clip-path="url(#clip-path)" style="isolation: isolate">
    <g id="Group_1837" data-name="Group 1837" transform="translate(0 0)">
      <path id="Path_1348" data-name="Path 1348" d="M208.343,294.154l5.565,3.2-1.354,2.331a2.724,2.724,0,0,1-3.7.991l-3.222-1.852,2.709-4.668Z" transform="translate(-200.27 -264.976)" fill="#d0021b" fill-rule="evenodd"/>
      <path id="Path_1349" data-name="Path 1349" d="M200.829,311.867l1.041-1.793,4.2,2.409,2.894,7.5-3.177-.206-1.17-5.735Z" transform="translate(-197.273 -274.905)" fill="#d0021b" fill-rule="evenodd"/>
      <path id="Path_1350" data-name="Path 1350" d="M204.443,355.434l-.916-6.541L201.8,347.9l-6.172,2.49a10.575,10.575,0,0,0,8.814,5.043Z" transform="translate(-194.03 -298.499)" fill="#d0021b" fill-rule="evenodd"/>
      <path id="Path_1351" data-name="Path 1351" d="M192.21,344.046l8.6-2.775-.071-1.062-9.34.284a11.13,11.13,0,0,0,.809,3.553Z" transform="translate(-191.393 -293.701)" fill="#d0021b" fill-rule="evenodd"/>
      <path id="Path_1352" data-name="Path 1352" d="M191.38,326.114l6.26.178.163-5.077-3.786-2.172-1.118,1.923a11.257,11.257,0,0,0-1.519,5.148Z" transform="translate(-191.38 -280.499)" fill="#d0021b" fill-rule="evenodd"/>
      <path id="Path_1353" data-name="Path 1353" d="M251.362,317.907l-5.566-3.2-1.355,2.337a2.693,2.693,0,0,0,.985,3.678l3.226,1.851,2.711-4.668Z" transform="translate(-224.249 -277.797)" fill="#d0021b" fill-rule="evenodd"/>
      <path id="Path_1354" data-name="Path 1354" d="M234.642,336.912l1.041-1.794-4.2-2.408-6.969,1.765,1.769,2.634,4.313-2.519Z" transform="translate(-212.047 -289.023)" fill="#d0021b" fill-rule="evenodd"/>
      <path id="Path_1355" data-name="Path 1355" d="M220.962,352.58l-1.88-8.793.96-.47,4.42,8.185a11.307,11.307,0,0,1-3.5,1.078Z" transform="translate(-208.658 -295.639)" fill="#d0021b" fill-rule="evenodd"/>
      <path id="Path_1356" data-name="Path 1356" d="M230.674,350.289l-3.283-5.306,4.339-2.678,3.787,2.172-1.118,1.928a11.315,11.315,0,0,1-3.725,3.884Z" transform="translate(-213.841 -295.008)" fill="#d0021b" fill-rule="evenodd"/>
      <path id="Path_1357" data-name="Path 1357" d="M232.574,305.532l-7.487,6.783-1.3-.745,2.168-9.859c1.753-.745,3.313-.846,4.5-.163s1.892,2.092,2.114,3.985Z" transform="translate(-211.593 -269.301)" fill="#d0021b" fill-rule="evenodd"/>
      <path id="Path_1358" data-name="Path 1358" d="M226.412,248.976c-.485.812-.935,1.646-1.373,2.48,1.81.875,3.6,1.8,5.37,2.759,1.736-.37,3.5-.716,5.283-1.009,1.7-.274,3.408-.5,5.116-.722.383-.048.231-.091.026-.466-.567-1.038-1.129-2.085-1.7-3.124q-3.905,1.187-7.758,2.557-2.45-1.294-4.963-2.474Z" transform="translate(-212.374 -236.746)" fill="#d0021b" fill-rule="evenodd"/>
      <path id="Path_1359" data-name="Path 1359" d="M285.089,223.47a36.174,36.174,0,0,1-5.671,2.652,2.4,2.4,0,0,1-3.036-2.606q.039-.76.06-1.522l0-.072c.014-.668.027-1.338.043-2.007.024-.9.056-1.793.089-2.689.026-.616.054-.627.938-.611a7.619,7.619,0,0,1,4.543,1.41,11.274,11.274,0,0,1,3.318,4.551c.236.528.245.6-.286.9Z" transform="translate(-244.394 -216.611)" fill="#d0021b" fill-rule="evenodd"/>
      <path id="Path_1360" data-name="Path 1360" d="M262.462,217.444c.1,3.344.324,6.675.559,10.008.015.213.03.426.044.638.056.844-.193.658-.874.929-.145.058-.282.116-.43.168-.417-.843-.739-1.757-1.092-2.632-1.03-2.5-2.083-4.889-3.247-7.327-.027-.061-.057-.122-.086-.183a24,24,0,0,1,5.125-1.6Z" transform="translate(-232.518 -217.131)" fill="#d0021b" fill-rule="evenodd"/>
      <path id="Path_1361" data-name="Path 1361" d="M240.047,223.735c.6.965,1.192,1.966,1.776,3.008.6,1.065,1.176,2.186,1.757,3.317q-3.191,1.735-6.336,3.567-2.469-1.3-5.025-2.462c.561-.839,1.133-1.677,1.751-2.486a18.359,18.359,0,0,1,6.076-4.943Z" transform="translate(-216.852 -221.054)" fill="#d0021b" fill-rule="evenodd"/>
      <path id="Path_1362" data-name="Path 1362" d="M261.429,297.948c-1-.605-2-1.206-2.991-1.811s-1.991-1.207-2.992-1.808c.636-1.033,1.286-2.058,1.971-3.071a3.558,3.558,0,0,1,4.773-1.226c1.287.855,2.569,1.717,3.856,2.577-1.537,1.778-3.085,3.552-4.618,5.34Z" transform="translate(-231.339 -262.102)" fill="#d0021b" fill-rule="evenodd"/>
      <path id="Path_1363" data-name="Path 1363" d="M278.063,270.677c-.56.7-1.122,1.4-1.695,2.086q-2.493-1.707-4.988-3.408c-.132-.874-1.455-9.071-1.428-9.157s.326,0,.426.019c1.231.154,2.453.308,3.681.476q-.417,3.318-.834,6.561,2.422,1.7,4.837,3.423Z" transform="translate(-240.386 -243.776)" fill="#d0021b" fill-rule="evenodd"/>
      <path id="Path_1364" data-name="Path 1364" d="M286.15,240.5a65.621,65.621,0,0,1-8.556,2.816q-.651.18-1.3.37c-.811.24-.534.369-.572,1.128-.007.145-.012.289-.013.436.862.088,1.731.088,2.6.113,2.9.081,5.8.24,8.7.4a22.008,22.008,0,0,0-.857-5.261Z" transform="translate(-243.975 -231.508)" fill="#d0021b" fill-rule="evenodd"/>
      <path id="Path_1365" data-name="Path 1365" d="M291.714,257.358c-1.165-.149-2.371-.312-3.606-.476-1.253-.164-2.525-.307-3.828-.452q-.471,3.4-.969,6.744c1.513,1.092,3.016,2.2,4.523,3.3.575-.764,1.145-1.534,1.678-2.327a13.785,13.785,0,0,0,2.2-6.792Z" transform="translate(-248.718 -241.447)" fill="#d0021b" fill-rule="evenodd"/>
      <path id="Path_1366" data-name="Path 1366" d="M250.578,269.957q.525,1.023,1.045,2.048-.655.988-1.313,1.985c-.438.659-.876,1.322-1.316,1.985-.785-.024-1.573-.043-2.36-.062s-1.573-.043-2.36-.062c-.349-.683-.7-1.365-1.046-2.048s-.7-1.36-1.045-2.043q.658-1,1.314-1.985c.439-.664.878-1.322,1.315-1.985,1.4.033,2.822.058,4.224.106.165,0,.329.014.494.018.365.674.7,1.366,1.047,2.044Z" transform="translate(-223.066 -248.531)" fill="#d0021b" fill-rule="evenodd"/>
      <path id="Path_1367" data-name="Path 1367" d="M216.5,267.906c1.021.557,2.042,1.115,3.06,1.683s2.029,1.139,3.042,1.716c.429-1.2.884-2.385,1.421-3.528.883-1.879.465-4.086-1.089-4.932-1.354-.735-2.734-1.442-4.121-2.12a50.086,50.086,0,0,0-2.313,7.181Z" transform="translate(-207.045 -244.125)" fill="#d0021b" fill-rule="evenodd"/>
    </g>
  </g>
</svg>
