<svg xmlns="http://www.w3.org/2000/svg" width="21.208" height="23.136" viewBox="0 0 21.208 23.136">
  <path id="Icon_metro-shift" data-name="Icon metro-shift" d="M22.815,28.921h-9.64a.964.964,0,0,1-.964-.964v-10.6H8.355a.964.964,0,0,1-.682-1.646l9.64-9.64a.964.964,0,0,1,1.363,0l9.64,9.64a.964.964,0,0,1-.682,1.646H23.779v10.6A.964.964,0,0,1,22.815,28.921Zm-8.676-1.928h7.712v-10.6a.964.964,0,0,1,.964-.964h2.493L17.995,8.111l-7.313,7.313h2.493a.964.964,0,0,1,.964.964v10.6Z" transform="translate(-7.391 -5.784)" fill="#d0021b"/>
</svg>
