<svg id="_4._Icons_Twitter" data-name="4. Icons / Twitter" xmlns="http://www.w3.org/2000/svg" width="25" height="20.317" viewBox="0 0 25 20.317">
  <path id="_Icon_Color" data-name="🔹 Icon Color" d="M25,2.405a10.24,10.24,0,0,1-2.946.807A5.137,5.137,0,0,0,24.309.375,10.275,10.275,0,0,1,21.052,1.62,5.132,5.132,0,0,0,12.311,6.3,14.561,14.561,0,0,1,1.741.939,5.136,5.136,0,0,0,3.327,7.786a5.107,5.107,0,0,1-2.322-.642,5.133,5.133,0,0,0,4.114,5.094,5.141,5.141,0,0,1-2.317.087,5.133,5.133,0,0,0,4.792,3.561A10.313,10.313,0,0,1,0,18.012a14.52,14.52,0,0,0,7.862,2.3A14.506,14.506,0,0,0,22.441,5.06,10.442,10.442,0,0,0,25,2.405Z" fill="#969696"/>
</svg>
