<svg xmlns="http://www.w3.org/2000/svg" width="35.765" height="43.456" viewBox="0 0 35.765 43.456">
  <g id="_02-water" data-name="02-water" transform="translate(-344.871 -75.729)">
    <path id="Path_1415" data-name="Path 1415" d="M740.91,107.424c-8.279,0-13.072-8.392-9.89-15.735,1.1-2.541,2.927-4.74,4.651-7.27l5.239-7.69,4.657,6.836a70.344,70.344,0,0,1,4.735,7.083C754.2,98.259,749.825,107.424,740.91,107.424Z" transform="translate(-378.128)" fill="none" stroke="#010101" stroke-linecap="round" stroke-linejoin="round" stroke-miterlimit="22.926" stroke-width="2"/>
    <path id="Path_1416" data-name="Path 1416" d="M989.05,1113.02c-.22.394-.419.79-.591,1.187a7.884,7.884,0,0,0-.276,5.665" transform="translate(-632.109 -1021.123)" fill="none" stroke="#cc3533" stroke-linecap="round" stroke-linejoin="round" stroke-miterlimit="22.926" stroke-width="2"/>
    <path id="Path_1417" data-name="Path 1417" d="M692.973,2442.649a3.01,3.01,0,0,1,2.2-1.052,2.928,2.928,0,0,1,2.011.859c2.1,1.979,2.707,2.75,5.075.194a3.01,3.01,0,0,1,2.2-1.052,2.928,2.928,0,0,1,2.011.859c2.1,1.979,2.707,2.75,5.075.194a3.01,3.01,0,0,1,2.2-1.052,2.928,2.928,0,0,1,2.011.859" transform="translate(-341.614 -2330.254)" fill="none" stroke="#cc3533" stroke-linecap="round" stroke-linejoin="round" stroke-miterlimit="22.926" stroke-width="2"/>
    <path id="Path_1418" data-name="Path 1418" d="M346.285,2727.347c2.1,1.979,2.707,2.75,5.074.194a3.01,3.01,0,0,1,2.2-1.052,2.927,2.927,0,0,1,2.011.858c2.1,1.979,2.707,2.75,5.075.194a3.009,3.009,0,0,1,2.2-1.052,2.926,2.926,0,0,1,2.011.858c2.1,1.979,2.707,2.75,5.075.194a3.01,3.01,0,0,1,2.2-1.052,2.926,2.926,0,0,1,2.011.858c2.1,1.979,2.707,2.75,5.075.194" transform="translate(0 -2610.977)" fill="none" stroke="#010101" stroke-linecap="round" stroke-linejoin="round" stroke-miterlimit="22.926" stroke-width="2"/>
  </g>
</svg>
