<svg xmlns="http://www.w3.org/2000/svg" width="573" height="112" viewBox="0 0 573 112">
  <text id="MOBIGIFT" transform="translate(343 88)" font-size="88" font-family="Montserrat-SemiBold, Montserrat" font-weight="600"><tspan x="-229.328" y="0">MOBIGIFT</tspan></text>
  <g id="Icons_Ecommerce_ic-ecommerce-gift" data-name="Icons / Ecommerce / ic-ecommerce-gift">
    <rect id="Rectangle_221" data-name="Rectangle 221" width="112" height="112" fill="none"/>
    <g id="ic-ecommerce-gift" transform="translate(14 13.893)">
      <rect id="Rectangle_49" data-name="Rectangle 49" width="84" height="18.667" rx="0.2" transform="translate(0 19.02)" fill="none" stroke="#000" stroke-linecap="round" stroke-linejoin="round" stroke-width="6"/>
      <path id="Path_136" data-name="Path 136" d="M70.333,11V48.333A9.333,9.333,0,0,1,61,57.667H14.333A9.333,9.333,0,0,1,5,48.333V11" transform="translate(4.333 26.547)" fill="none" stroke="#000" stroke-linecap="round" stroke-linejoin="round" stroke-width="6"/>
      <path id="Path_137" data-name="Path 137" d="M4.364,19.847V18.54A13.673,13.673,0,0,1,26.858,6.78L41.7,19.847" transform="translate(1.749 -0.966)" fill="none" stroke="#000" stroke-linecap="round" stroke-linejoin="round" stroke-width="6"/>
      <path id="Path_138" data-name="Path 138" d="M48.41,21.835l.607-3.547a13.673,13.673,0,0,0-22.633-11.9L11.73,19.548" transform="translate(29.01 -2.954)" fill="none" stroke="#000" stroke-linecap="round" stroke-linejoin="round" stroke-width="6"/>
    </g>
  </g>
</svg>
