<svg xmlns="http://www.w3.org/2000/svg" xmlns:xlink="http://www.w3.org/1999/xlink" width="697.29" height="488.73" viewBox="0 0 697.29 488.73">
  <defs>
    <filter id="Ellipse_1" x="485.955" y="112.618" width="120.877" height="121.651" filterUnits="userSpaceOnUse">
      <feOffset dx="8" dy="9" input="SourceAlpha"/>
      <feGaussianBlur stdDeviation="14" result="blur"/>
      <feFlood flood-color="#1394e0" flood-opacity="0.231"/>
      <feComposite operator="in" in2="blur"/>
      <feComposite in="SourceGraphic"/>
    </filter>
    <linearGradient id="linear-gradient" x1="0.687" y1="-0.067" x2="0.687" y2="1" gradientUnits="objectBoundingBox">
      <stop offset="0" stop-color="#71ffb0"/>
      <stop offset="1" stop-color="#91f688"/>
    </linearGradient>
    <linearGradient id="linear-gradient-2" x1="0.702" y1="0.382" x2="0.331" y2="0.849" gradientUnits="objectBoundingBox">
      <stop offset="0" stop-color="#4d63a0"/>
      <stop offset="1" stop-color="#222735"/>
    </linearGradient>
    <linearGradient id="linear-gradient-3" x1="0.496" y1="0.695" x2="0.509" y2="0.048" gradientUnits="objectBoundingBox">
      <stop offset="0" stop-color="#2e4175"/>
      <stop offset="1" stop-color="#222735"/>
    </linearGradient>
    <linearGradient id="linear-gradient-4" x1="0.442" y1="-0.282" x2="0.5" y2="1.112" gradientUnits="objectBoundingBox">
      <stop offset="0" stop-color="#fdc6c6"/>
      <stop offset="1" stop-color="#a47070"/>
    </linearGradient>
    <clipPath id="clip-coming-soon">
      <rect width="697.29" height="488.73"/>
    </clipPath>
  </defs>
  <g id="coming-soon" clip-path="url(#clip-coming-soon)">
    <g id="_-Pages-New" data-name="ðŸ“-Pages-New" transform="translate(-3.344 -3.422)">
      <g id="Comingsoon" transform="translate(-368 -400)">
        <g id="Illustration" transform="translate(368 400)">
          <g id="Shape">
            <path id="Triangle" d="M626.855,49.168l73.134,112.654A4,4,0,0,1,696.634,168H550.366a4,4,0,0,1-3.355-6.178L620.145,49.168a4,4,0,0,1,6.71,0Z" fill="#ea5455" fill-rule="evenodd" opacity="0.05"/>
            <path id="Triangle-2" data-name="Triangle" d="M100.86,244.2,191.016,383.83a4,4,0,0,1-3.36,6.17H7.344a4,4,0,0,1-3.36-6.17L94.14,244.2a4,4,0,0,1,6.721,0Z" fill="#ea5455" fill-rule="evenodd" opacity="0.05"/>
            <path id="Triangle-3" data-name="Triangle" d="M449.362,220.218,596.027,447.833A4,4,0,0,1,592.664,454H299.336a4,4,0,0,1-3.362-6.167L442.638,220.218a4,4,0,0,1,6.725,0Z" fill="#7367f0" fill-rule="evenodd" opacity="0.25"/>
            <path id="Triangle-4" data-name="Triangle" d="M592.442,39.816l50.985,86.146A4,4,0,0,1,639.985,132H538.015a4,4,0,0,1-3.442-6.037l50.985-86.146a4,4,0,0,1,6.885,0Z" fill="#7367f0" fill-rule="evenodd" opacity="0.25"/>
            <path id="Triangle-5" data-name="Triangle" d="M180.87,5.267l36.193,56.577A4,4,0,0,1,213.693,68H141.307a4,4,0,0,1-3.37-6.156L174.13,5.267a4,4,0,0,1,6.739,0Z" fill="#ea5455" fill-rule="evenodd" opacity="0.05"/>
          </g>
          <g id="Finance-Presentation" transform="translate(95 82)">
            <g id="DesktopDasboard">
              <path id="Rectangle" d="M25.137,0H487.669a25.137,25.137,0,0,1,25.137,25.137v285.51a25.137,25.137,0,0,1-25.137,25.137H25.137A25.137,25.137,0,0,1,0,310.647V25.137A25.137,25.137,0,0,1,25.137,0Z" fill="#f2f2f2" fill-rule="evenodd"/>
              <g id="ElementCard11" transform="translate(143.033 51.876)">
                <g id="Rectangle-2" data-name="Rectangle">
                  <path id="Path_1" data-name="Path 1" d="M7.484,0H195.853a7.484,7.484,0,0,1,7.484,7.484V132.291a7.484,7.484,0,0,1-7.484,7.484H7.484A7.484,7.484,0,0,1,0,132.291V7.484A7.484,7.484,0,0,1,7.484,0Z"/>
                  <path id="Path_2" data-name="Path 2" d="M7.484,0H195.853a7.484,7.484,0,0,1,7.484,7.484V132.291a7.484,7.484,0,0,1-7.484,7.484H7.484A7.484,7.484,0,0,1,0,132.291V7.484A7.484,7.484,0,0,1,7.484,0Z" fill="#7367f0"/>
                </g>
                <g id="Group-12" transform="translate(29.903 40.021)">
                  <path id="Path" d="M25.417,13.508V43.78a1.5,1.5,0,0,1-1.5,1.5H17.046a1.5,1.5,0,0,1-1.5-1.5V13.508a1.5,1.5,0,0,1,1.5-1.5H23.92A1.5,1.5,0,0,1,25.417,13.508Z" fill="#fff" fill-rule="evenodd" opacity="0.395"/>
                  <path id="Path-2" data-name="Path" d="M9.868,26.052V43.78a1.5,1.5,0,0,1-1.5,1.5H1.5A1.5,1.5,0,0,1,0,43.78V26.052a1.5,1.5,0,0,1,1.5-1.5H8.371A1.5,1.5,0,0,1,9.868,26.052Z" fill="#fff" fill-rule="evenodd"/>
                  <path id="Path-3" data-name="Path" d="M40.967,1.562V43.78a1.5,1.5,0,0,1-1.5,1.5H32.6a1.5,1.5,0,0,1-1.5-1.5V1.562a1.5,1.5,0,0,1,1.5-1.5H39.47A1.5,1.5,0,0,1,40.967,1.562Z" fill="#fff" fill-rule="evenodd"/>
                  <path id="Path-4" data-name="Path" d="M56.516,7.535V43.78a1.5,1.5,0,0,1-1.5,1.5H48.145a1.5,1.5,0,0,1-1.5-1.5V7.535a1.5,1.5,0,0,1,1.5-1.5h6.874A1.5,1.5,0,0,1,56.516,7.535Z" fill="#fff" fill-rule="evenodd" opacity="0.395"/>
                  <path id="Path-5" data-name="Path" d="M72.065,19.481v24.3a1.5,1.5,0,0,1-1.5,1.5H63.694a1.5,1.5,0,0,1-1.5-1.5v-24.3a1.5,1.5,0,0,1,1.5-1.5h6.874A1.5,1.5,0,0,1,72.065,19.481Z" fill="#fff" fill-rule="evenodd"/>
                  <path id="Path-6" data-name="Path" d="M87.615,46.361V64.687a1.5,1.5,0,0,1-1.5,1.5H79.244a1.5,1.5,0,0,1-1.5-1.5V46.361a1.5,1.5,0,0,1,1.5-1.5h6.874A1.5,1.5,0,0,1,87.615,46.361Z" fill="#fff" fill-rule="evenodd" opacity="0.395"/>
                  <path id="Path-7" data-name="Path" d="M103.164,46.361V81.412a1.5,1.5,0,0,1-1.5,1.5H94.793a1.5,1.5,0,0,1-1.5-1.5V46.361a1.5,1.5,0,0,1,1.5-1.5h6.874A1.5,1.5,0,0,1,103.164,46.361Z" fill="#fff" fill-rule="evenodd"/>
                  <path id="Path-8" data-name="Path" d="M118.713,46.361V72.452a1.5,1.5,0,0,1-1.5,1.5h-6.874a1.5,1.5,0,0,1-1.5-1.5V46.361a1.5,1.5,0,0,1,1.5-1.5h6.874A1.5,1.5,0,0,1,118.713,46.361Z" fill="#fff" fill-rule="evenodd" opacity="0.395"/>
                  <path id="Path-9" data-name="Path" d="M134.263,46.361V78.426a1.5,1.5,0,0,1-1.5,1.5h-6.874a1.5,1.5,0,0,1-1.5-1.5V46.361a1.5,1.5,0,0,1,1.5-1.5h6.874A1.5,1.5,0,0,1,134.263,46.361Z" fill="#fff" fill-rule="evenodd"/>
                  <path id="Path-10" data-name="Path" d="M149.812,46.361V64.687a1.5,1.5,0,0,1-1.5,1.5h-6.874a1.5,1.5,0,0,1-1.5-1.5V46.361a1.5,1.5,0,0,1,1.5-1.5h6.874A1.5,1.5,0,0,1,149.812,46.361Z" fill="#fff" fill-rule="evenodd" opacity="0.395"/>
                </g>
                <path id="Rectangle-3" data-name="Rectangle" d="M26.312,23.893h59.81a1.792,1.792,0,0,1,0,3.584H26.312a1.792,1.792,0,1,1,0-3.584Z" fill="#fff" fill-rule="evenodd" opacity="0.395"/>
                <rect id="Rectangle-4" data-name="Rectangle" width="33.491" height="3.584" transform="translate(24.52 13.739)" fill="#fff"/>
              </g>
              <path id="Rectangle-5" data-name="Rectangle" d="M25.137,0H80.146a25.137,25.137,0,0,1,25.137,25.137V335.784H25.137A25.137,25.137,0,0,1,0,310.647V25.137A25.137,25.137,0,0,1,25.137,0Z" fill="#e4e4e4" fill-rule="evenodd"/>
              <path id="Rectangle-6" data-name="Rectangle" d="M17.785,46.29H86.093a5,5,0,0,1,5,5v4.366a5,5,0,0,1-5,5H17.785a5,5,0,0,1-5-5V51.29A5,5,0,0,1,17.785,46.29Z" fill="rgba(255,255,255,0.42)" fill-rule="evenodd"/>
              <path id="Rectangle-7" data-name="Rectangle" d="M17.785,72.627H54.131a5,5,0,0,1,5,5v4.366a5,5,0,0,1-5,5H17.785a5,5,0,0,1-5-5V77.627A5,5,0,0,1,17.785,72.627Z" fill="rgba(255,255,255,0.2)" fill-rule="evenodd"/>
              <path id="Rectangle-8" data-name="Rectangle" d="M17.785,96.57H54.131a5,5,0,0,1,5,5v4.366a5,5,0,0,1-5,5H17.785a5,5,0,0,1-5-5V101.57A5,5,0,0,1,17.785,96.57Z" fill="rgba(255,255,255,0.2)" fill-rule="evenodd"/>
              <path id="Rectangle-9" data-name="Rectangle" d="M375.561,0H487.669a25.137,25.137,0,0,1,25.137,25.137v285.51a25.137,25.137,0,0,1-25.137,25.137H375.561Z" fill="#e4e4e4" fill-rule="evenodd"/>
              <g id="Group-23" transform="translate(398.734 47.088)">
                <g id="Rectangle-10" data-name="Rectangle">
                  <path id="Path_3" data-name="Path 3" d="M10.04,0H85.448a10,10,0,0,1,10,9.96l.4,101.311a10,10,0,0,1-9.96,10.039H10.44a10,10,0,0,1-10-9.96L.04,10.04A10,10,0,0,1,10,0Z"/>
                  <path id="Path_4" data-name="Path 4" d="M10.04,0H85.448a10,10,0,0,1,10,9.96l.4,101.311a10,10,0,0,1-9.96,10.039H10.44a10,10,0,0,1-10-9.96L.04,10.04A10,10,0,0,1,10,0Z" fill="#fff"/>
                </g>
                <path id="Rectangle-11" data-name="Rectangle" d="M32.759,75.021h30.37a2.394,2.394,0,0,1,0,4.789H32.759a2.394,2.394,0,1,1,0-4.789Z" fill="#467fff" opacity="0.34"/>
                <path id="Rectangle-12" data-name="Rectangle" d="M24.768,87.791H71.12a2.394,2.394,0,0,1,0,4.789H24.768a2.394,2.394,0,1,1,0-4.789Z" fill="#467fff" opacity="0.34"/>
                <g id="Icon8" transform="translate(29.565 19.952)">
                  <g id="Oval">
                    <g transform="matrix(1, 0, 0, 1, -519.95, -145.62)" filter="url(#Ellipse_1)">
                      <ellipse id="Ellipse_1-2" data-name="Ellipse 1" cx="18.438" cy="18.825" rx="18.438" ry="18.825" transform="translate(519.95 145.62)"/>
                    </g>
                    <ellipse id="Ellipse_2" data-name="Ellipse 2" cx="18.438" cy="18.825" rx="18.438" ry="18.825" transform="translate(0 0)" fill="#fff"/>
                  </g>
                  <g id="Group-70" transform="translate(11.187 8.779)">
                    <path id="Combined-Shape" d="M11.272,10.756A3.926,3.926,0,0,1,15.2,14.682V17.3a1.312,1.312,0,0,1-1.312,1.312H1.312A1.312,1.312,0,0,1,0,17.3V14.682a3.926,3.926,0,0,1,3.926-3.926ZM7.6,0A4.711,4.711,0,1,1,2.882,4.711,4.714,4.714,0,0,1,7.6,0Z" fill="#7367f0" fill-rule="evenodd"/>
                  </g>
                </g>
              </g>
              <path id="Rectangle-13" data-name="Rectangle" d="M401.336,237.036h90.682a5,5,0,0,1,5,5v68.214a5,5,0,0,1-5,5H401.336a5,5,0,0,1-5-5V242.036A5,5,0,0,1,401.336,237.036Z" fill="rgba(255,255,255,0.35)" fill-rule="evenodd"/>
              <path id="Rectangle-14" data-name="Rectangle" d="M25.137,0H487.669a25.137,25.137,0,0,1,25.137,25.137v2.581H0V25.137A25.137,25.137,0,0,1,25.137,0Z" fill="#d4d4d4" fill-rule="evenodd"/>
              <path id="Oval-2" data-name="Oval" d="M20.776,16.76a3.192,3.192,0,1,0-3.2-3.192A3.194,3.194,0,0,0,20.776,16.76Z" fill="#f5818d" fill-rule="evenodd"/>
              <path id="Oval-3" data-name="Oval" d="M33.561,16.76a3.192,3.192,0,1,0-3.2-3.192A3.194,3.194,0,0,0,33.561,16.76Z" fill="#ffbd63" fill-rule="evenodd"/>
              <path id="Oval-4" data-name="Oval" d="M47.145,16.76a3.192,3.192,0,1,0-3.2-3.192A3.194,3.194,0,0,0,47.145,16.76Z" fill="#4ce47a" fill-rule="evenodd"/>
            </g>
            <g id="ElementCard25" transform="translate(145 209)">
              <g id="Rectangle-15" data-name="Rectangle">
                <path id="Path_5" data-name="Path 5" d="M5.988,0H121.906a5.988,5.988,0,0,1,5.988,5.988V41.434a5.988,5.988,0,0,1-5.988,5.988H5.988A5.988,5.988,0,0,1,0,41.434V5.988A5.988,5.988,0,0,1,5.988,0Z"/>
                <path id="Path_6" data-name="Path 6" d="M5.988,0H121.906a5.988,5.988,0,0,1,5.988,5.988V41.434a5.988,5.988,0,0,1-5.988,5.988H5.988A5.988,5.988,0,0,1,0,41.434V5.988A5.988,5.988,0,0,1,5.988,0Z" fill="#fff"/>
              </g>
              <path id="Rectangle-16" data-name="Rectangle" d="M43.11,26.345H67.06a1.437,1.437,0,0,1,0,2.874H43.11a1.437,1.437,0,1,1,0-2.874Z" fill="#ff9f43" fill-rule="evenodd" opacity="0.2"/>
              <path id="Rectangle-17" data-name="Rectangle" d="M43.11,18.2H57.48a1.437,1.437,0,1,1,0,2.874H43.11a1.437,1.437,0,1,1,0-2.874Z" fill="#ff9f43" fill-rule="evenodd" opacity="0.5"/>
              <path id="Path-11" data-name="Path" d="M88.738,18.333a1.8,1.8,0,0,1,3.117-.269l.066.1,3.523,5.991a.12.12,0,0,0,.164.043l.015-.011.014-.013,1.874-2.119a1.8,1.8,0,0,1,2.675-.018l.064.074L103,25.489a.12.12,0,0,0,.168.017l.014-.014.012-.016,4.342-7.016a1.8,1.8,0,0,1,2.829-.293l.077.086,2.023,2.418a.838.838,0,0,1-1.234,1.132l-.052-.056-2.023-2.418a.12.12,0,0,0-.173-.011l-.02.025-4.342,7.016a1.8,1.8,0,0,1-2.854.266l-.067-.077-2.749-3.376-.014-.014a.12.12,0,0,0-.145-.011l-.024.021-1.874,2.119a1.8,1.8,0,0,1-2.842-.2L94,25.008l-3.523-5.991a.12.12,0,0,0-.2-.016l-.017.027L86.831,26.56a1.8,1.8,0,0,1-.574.7l-.1.065-4.069,2.594a.838.838,0,0,1-.964-1.37l.063-.044,4.069-2.594a.12.12,0,0,0,.033-.031l.011-.02Z" fill="#ff9f43"/>
              <circle id="Oval-5" data-name="Oval" cx="9.82" cy="9.82" r="9.82" transform="translate(13.891 14.37)" fill="#ff9f43"/>
            </g>
            <g id="ElementCard26" transform="translate(145 274)">
              <g id="Rectangle-18" data-name="Rectangle">
                <path id="Path_7" data-name="Path 7" d="M5.988,0H121.906a5.988,5.988,0,0,1,5.988,5.988V41.434a5.988,5.988,0,0,1-5.988,5.988H5.988A5.988,5.988,0,0,1,0,41.434V5.988A5.988,5.988,0,0,1,5.988,0Z"/>
                <path id="Path_8" data-name="Path 8" d="M5.988,0H121.906a5.988,5.988,0,0,1,5.988,5.988V41.434a5.988,5.988,0,0,1-5.988,5.988H5.988A5.988,5.988,0,0,1,0,41.434V5.988A5.988,5.988,0,0,1,5.988,0Z" fill="#fff"/>
              </g>
              <path id="Rectangle-19" data-name="Rectangle" d="M44.068,26.824h23.95a1.437,1.437,0,0,1,0,2.874H44.068a1.437,1.437,0,0,1,0-2.874Z" fill="#28c76f" fill-rule="evenodd" opacity="0.454"/>
              <path id="Rectangle-20" data-name="Rectangle" d="M44.068,18.681h14.37a1.437,1.437,0,0,1,0,2.874H44.068a1.437,1.437,0,0,1,0-2.874Z" fill="#28c76f" fill-rule="evenodd"/>
              <path id="Path-146" d="M81.909,29.495l4.91-8.618a2.4,2.4,0,0,1,3.267-.9l.032.018,1.215.717a2.4,2.4,0,0,0,2.7-.179l2.146-1.686a2.4,2.4,0,0,1,2.764-.138l1.364.867a2.4,2.4,0,0,0,3.306-.737q.037-.059.071-.119a6.229,6.229,0,0,1,3.643-3.259,14.042,14.042,0,0,1,6.832,0V29.495Z" fill-rule="evenodd" fill="url(#linear-gradient)"/>
              <path id="Path-146-2" data-name="Path-146" d="M81.909,29.495l5.3-4.215a2.4,2.4,0,0,1,2.825-.115l.306.206a2.4,2.4,0,0,0,2.813-.106l2.065-1.622a2.4,2.4,0,0,1,2.764-.138l1.887,1.2a2.4,2.4,0,0,0,3.1-.455,10.674,10.674,0,0,1,4.9-3.569,15.753,15.753,0,0,1,6.292-.423v9.238Z" fill="#28c76f" fill-rule="evenodd"/>
              <circle id="Oval-6" data-name="Oval" cx="9.82" cy="9.82" r="9.82" transform="translate(13.891 14.37)" fill="#28c76f"/>
            </g>
            <g id="Icon2" transform="translate(258 261)">
              <ellipse id="Oval-7" data-name="Oval" cx="14.574" cy="14.999" rx="14.574" ry="14.999" transform="translate(0.177 0.458)" fill="#28c76f"/>
              <path id="Path-12" data-name="Path" d="M9.765,14.328a1.234,1.234,0,0,0-1.9,1.57l4.285,5.188a1.47,1.47,0,0,0,2.312-.058L20.6,12.78a1.234,1.234,0,0,0-1.981-1.472l-5.379,7.226Z" fill="#fff" fill-rule="evenodd"/>
            </g>
            <g id="Men3.2" transform="translate(26 103)">
              <g id="LLeg" transform="translate(38.521 111.651)">
                <path id="Path-13" data-name="Path" d="M21.1,170.523s-.125,7.893,4.767,10.7,12.469,8.014,12.469,8.014L9.507,190.2l.822-19.75Z" fill="#784931" fill-rule="evenodd"/>
                <path id="Path-14" data-name="Path" d="M8.5,179.222l-.469,12.805h6.7l.459-1.65a10.343,10.343,0,0,1,3.978.61c1.54.754,1.747,1.119,1.747,1.119l21.238.044s1.048-4.139-5.426-7.132-11.188-7.244-12.083-7.679a4,4,0,0,0-4,.344c-1.281,1.029-2.3,3.735-5.2,3.82C11.7,181.613,9.553,177.056,8.5,179.222Z" fill="#4b4b4b" fill-rule="evenodd"/>
                <line id="Path-38" x1="2.202" y2="2.109" transform="translate(24.45 178.728)" fill="none" stroke="#fff" stroke-linecap="round" stroke-width="2"/>
                <line id="Path-38-2" data-name="Path-38" x1="2.202" y2="2.109" transform="translate(27.66 180.327)" fill="none" stroke="#fff" stroke-linecap="round" stroke-width="2"/>
                <line id="Path-38-3" data-name="Path-38" x1="2.202" y2="2.109" transform="translate(30.871 181.926)" fill="none" stroke="#fff" stroke-linecap="round" stroke-width="2"/>
                <path id="Path-15" data-name="Path" d="M0,0S8.008,87.33,8.258,93.4,5.685,109.948,5.74,121.3q.055,11.356,1.03,51.377l17.666.37q7.425-72.322,7.5-83.167c.08-10.845.76-88.84.76-88.84Z" fill="#383838" fill-rule="evenodd"/>
                <path id="Path-16" data-name="Path" d="M12.734,96.119l.02.216q.4,5.553-6.965,36.541L5.74,121.3h0C5.686,110.151,8.407,99.846,8.268,93.73l-.01-.329C8.174,91.355,7.208,80.08,5.966,66.03l.58,2.058Q11.655,86.371,12.734,96.119Z" fill="rgba(255,255,255,0.19)" fill-rule="evenodd" opacity="0.284"/>
              </g>
              <g id="RLeg" transform="translate(10.727 111.214)">
                <path id="Path-17" data-name="Path" d="M6.792,169.574l-3.382,20.46,12.469-.062.394-20.719Z" fill="#784931" fill-rule="evenodd"/>
                <path id="Path-18" data-name="Path" d="M3.3,181.211,3.2,184.034h0Q1.334,186.1.51,192.314c0,2.893,19.27,2.807,20.2,0q-1.009-6.764-3.186-8.464l-.01-2.8a3,3,0,0,0-2.224-2.887l-1.67-.447h0c-1.823-2.655-4.307-2.561-6.436.332l-1.521.329A3,3,0,0,0,3.3,181.211Z" fill="#4b4b4b" fill-rule="evenodd"/>
                <line id="Path-39" x2="5.048" transform="translate(7.889 180.26)" fill="none" stroke="#fff" stroke-linecap="round" stroke-width="2"/>
                <line id="Path-39-2" data-name="Path-39" x2="5.048" transform="translate(7.889 182.659)" fill="none" stroke="#fff" stroke-linecap="round" stroke-width="2"/>
                <line id="Path-39-3" data-name="Path-39" x2="3.442" transform="translate(8.692 185.057)" fill="none" stroke="#fff" stroke-linecap="round" stroke-width="2"/>
                <path id="Path-19" data-name="Path" d="M13.08,1.147s-5.571,59.92-5.5,71.4S9.3,89.057,6.967,97.289q-2.333,8.232-4.322,73.936l17.25,1.885Q30.914,102.8,32.113,93.055C33.311,83.307,48.122.32,48.122.32Z" fill="#2e2e2e" fill-rule="evenodd"/>
                <path id="Path-20" data-name="Path" d="M17.739,41.816l-1.052,3.8c-3.081,11.224-5.924,23.094-5.18,40.049l.036.774q.275,5.509-7.02,63.949l-.463,2.738q-.716,4.189-1.274,7.149l.106-3.451c.62-19.045,2.288-53.237,4.074-59.539,2.332-8.232.694-13.271.618-24.746-.053-8.032,2.661-39.8,4.294-58.143l1.2-13.253L20.362.976l.018,2.041q.192,28.26-2.64,38.8Z" fill="rgba(255,255,255,0.19)" fill-rule="evenodd" opacity="0.284"/>
              </g>
              <g id="LArm" transform="translate(56.184 15.19)">
                <g id="Group-6" transform="translate(51.368)">
                  <path id="Path-21" data-name="Path" d="M1.032,23.329S-.4,15.355.112,13.74c.441-1.4,4.611-3.408,4.611-3.408S11.975-1.079,13.562.083c1.291.942-3.777,9.355-3.777,9.355s4.622,4.83,4.557,6.988S6.8,25.344,6.8,25.344Z" fill="#784931" fill-rule="evenodd"/>
                  <path id="Path-22" data-name="Path" d="M4.879,10.218s3.212-.435,3.723.561c.436.848-2.233,3.254-2.233,3.931s.038,5.8.253,5.842S9.839,12.2,9.2,10.421C8.672,8.962,4.879,10.218,4.879,10.218Z" fill="#915b3c" fill-rule="evenodd"/>
                </g>
                <path id="Path-23" data-name="Path" d="M14.085,33.474C5.672,26.154-6.961,39.351,7.126,51.62,12.5,56.3,29.381,67.975,33.519,70.542c6.588,4.087,12,.4,14.227-6.031,1.887-5.452,13.175-34.633,11.738-38.92-.937-2.8-5.964-5.516-8.487-3.316-3.688,3.215-14.968,31.415-14.968,31.415S23.651,41.8,14.085,33.474Z" fill="#877bff" fill-rule="evenodd"/>
                <path id="Path-24" data-name="Path" d="M36.029,53.691q3.695,4.513,3.961,3.824t-2.93-6.489Z" fill="rgba(0,0,0,0.16)" fill-rule="evenodd"/>
                <path id="Path-41" d="M50.017,24.084c2.935-1.369,6.142.323,7.909,3.039" fill="none" stroke="#5386bf" stroke-linecap="round" stroke-width="1" fill-rule="evenodd"/>
              </g>
              <g id="Head" transform="translate(33.384)">
                <path id="Path-25" data-name="Path" d="M.663,40.392S5.44,39.275,5.605,31.48s.049-10.457.049-10.457l11.324-.189s.114,8.688.116,11.83c0,6.841,5.105,8.69,5.105,8.69s-.424,7.48-9.957,8.014C4.8,49.786.663,40.392.663,40.392Z" fill="#784931" fill-rule="evenodd"/>
                <g id="Head1" transform="translate(0.471)">
                  <path id="Path-26" data-name="Path" d="M26.6,12.62l-.253,7.367a17.133,17.133,0,0,0,4.013-9.594Z" fill-rule="evenodd" fill="url(#linear-gradient-2)"/>
                  <path id="Path-27" data-name="Path" d="M4.144,17.083c-4.693-.181-3.928,6.663.948,6.654,0,0,5.24,10.494,13.466,10.521,3.963.013,5.256-3.5,6.444-5.971a24.561,24.561,0,0,0,2.132-8.42c.078-2.41.088-10.328.088-10.328l-23.26-.01Z" fill="#784931" fill-rule="evenodd"/>
                  <path id="Path-28" data-name="Path" d="M27.222,13.172H10.863a8.867,8.867,0,0,1-3.647,7.193c.071,4.314,1.52,7.454,4.032,9.656,2.187-6.243,15.566-4.535,14.593-.462C23.8,38.117,4.636,38.311,5.8,18.614c-.764-1.038-3.5-1.232-4.4-.194C-.137,14.117.519,8.029,4.964,7.149,1.475-2.021,48.915-3.961,27.222,13.172Z" fill="#424242" fill-rule="evenodd"/>
                  <path id="Path-29" data-name="Path" d="M16.836,28.536a4.5,4.5,0,0,0,4.807,1.137" transform="matrix(0.966, -0.259, 0.259, 0.966, -6.908, 5.975)" fill="none" stroke="#cc6969" stroke-linecap="round" stroke-width="1" fill-rule="evenodd"/>
                  <path id="Path-8-2" data-name="Path-8" d="M4.615,21.106c.294-1.059.163-1.984-.893-2.407" transform="translate(-4.368 1.463) rotate(-13)" fill="none" stroke="#de6767" stroke-linecap="round" stroke-width="1" fill-rule="evenodd"/>
                </g>
              </g>
              <g id="Body" transform="translate(16.855 39.174)">
                <path id="Path-30" data-name="Path" d="M19.08,0,32.745,8.905l6.161-7.189s12.98,4.036,15.388,8.755c3.475,6.81-1.1,61.367.892,64.66,4.253,7.015-1.4,11.831-20.121,13.6s-35.327.32-32.313-9.042S-5.864,9.225,4.39,5.859C7.594,4.807,19.08,0,19.08,0Z" fill="#7367f0" fill-rule="evenodd"/>
                <path id="Path-31" data-name="Path" d="M9.859,16.845q1.241,2.2-1.28,15.254a27.894,27.894,0,0,0,4.528,21.269l.243.342a34.158,34.158,0,0,1,4.043,8.006c3.025,8.12-3.952,14.889,1.395,27.591l-.647-.031C7.649,88.733.714,86.02,2.752,79.689,5.224,72.013-2.15,29.554.766,12.655Q8.338,14.147,9.859,16.845Z" fill="rgba(0,0,0,0.16)" fill-rule="evenodd"/>
                <path id="Path-32" data-name="Path" d="M19.08,0,31.3,8a13.557,13.557,0,0,0-3.115,7.195c-4.7-3.685-9.58-8.833-11.093-14.37Z" fill="#5e54c7" fill-rule="evenodd"/>
                <path id="Path-33" data-name="Path" d="M33.711,7.787c2.067,1.4,3.715,3.885,5.058,6.707,1.609-3.244,2.225-7.527,2.225-12.095l-2.018-.8Z" fill="#5e54c7" fill-rule="evenodd"/>
                <path id="Path-34" data-name="Path" d="M31.3,7.995l.158.089a1.9,1.9,0,0,0,2.249-.3h0a261.5,261.5,0,0,1,8.829,54.554L37.73,70.354l-5.625-7.5C32.838,43.154,32.833,23.945,31.3,7.995Z" fill-rule="evenodd" fill="url(#linear-gradient-3)"/>
              </g>
              <g id="RArm" transform="translate(0 45.466)">
                <g id="Example-Book-Back" transform="translate(61.272 41.672) rotate(6)">
                  <g id="Group-3">
                    <path id="Rectangle-21" data-name="Rectangle" d="M2.564.744l10.842.44A2.464,2.464,0,0,1,15.77,3.645V22.455a2.464,2.464,0,0,1-2.464,2.464l-.1,0-10.842-.44A2.464,2.464,0,0,1,0,22.015V3.206A2.464,2.464,0,0,1,2.464.742Z" fill="#6182ec"/>
                    <path id="Rectangle-22" data-name="Rectangle" d="M3.968.24,15.59,1.279h0l7.69-.941a2.464,2.464,0,0,1,2.763,2.446V21.56a2.464,2.464,0,0,1-2.165,2.446L15.59,25.021h0L3.529,23.942a2.464,2.464,0,0,1-2.245-2.454V2.694A2.464,2.464,0,0,1,3.748.23Q3.858.23,3.968.24Z" fill="#96effa" fill-rule="evenodd"/>
                    <path id="Rectangle-23" data-name="Rectangle" d="M5.575,5.249l5.147.394a1.6,1.6,0,0,1,1.478,1.6V9.146a1.6,1.6,0,0,1-1.6,1.6q-.061,0-.122,0L5.33,10.347a1.6,1.6,0,0,1-1.478-1.6V6.844a1.6,1.6,0,0,1,1.6-1.6Q5.514,5.244,5.575,5.249Z" fill="#74cfdb"/>
                    <path id="Rectangle-24" data-name="Rectangle" d="M15.568,1.279h.326a.8.8,0,0,1,.8.8V24.144a.8.8,0,0,1-.8.8h-.326a.8.8,0,0,1-.8-.8V2.079A.8.8,0,0,1,15.568,1.279Z" fill="#eaefff"/>
                    <path id="Rectangle-25" data-name="Rectangle" d="M16.211,1.279h.326a.8.8,0,0,1,.8.8V24.144a.8.8,0,0,1-.8.8h-.326a.8.8,0,0,1-.8-.8V2.079A.8.8,0,0,1,16.211,1.279Z" fill="#7ad2dd"/>
                  </g>
                </g>
                <path id="Path-35" data-name="Path" d="M48.97,53.213s4.168-.835,5.874-2.169,6.871-2.277,6.871-2.277l-1.652,3.467s12.66-1.184,12.96.06-3.362,2.6-3.362,2.6A33.527,33.527,0,0,1,66.106,60.2c-1.654,1.843-9.872,1.624-12.753.473a10.611,10.611,0,0,0-5.2-.5Z" fill="#784931" fill-rule="evenodd"/>
                <path id="Path-36" data-name="Path" d="M15.449,4.773c4.527-9.745,20.028-3.179,16.122,7.26C27.787,22.146,18.619,45.758,18.619,45.758s29.053,3.674,31.318,5.388c3.022,2.286,1.154,8.808-1.414,9.97-2.173.982-18.313,1.556-34.105.316C6.6,60.818.827,57.475.021,48.79-.543,42.709,11.088,14.16,15.449,4.773Z" fill="#877bff" fill-rule="evenodd"/>
                <path id="Path-37" data-name="Path" d="M18.63,45.752q-2.415,4.572-1.724,4.665t4.2-4.331Z" fill="rgba(0,0,0,0.16)" fill-rule="evenodd"/>
                <path id="Path-40" d="M47.742,50.643a11.736,11.736,0,0,1-.677,8.582" transform="translate(1.946 -1.63) rotate(2)" fill="none" stroke="#5386bf" stroke-linecap="round" stroke-width="1" fill-rule="evenodd"/>
              </g>
            </g>
            <g id="Example-Paper" transform="translate(381.857 174.31) rotate(148)">
              <path id="Rectangle-26" data-name="Rectangle" d="M0,0H26.821V-19.2a51.46,51.46,0,0,1,3.832-19.2H3.832A51.46,51.46,0,0,0,0-19.2Z" fill="#e8ffff" fill-rule="evenodd"/>
              <line id="Path-4-2" data-name="Path-4" x2="13.946" transform="translate(5.563 -7.819)" fill="none" stroke="rgba(0,0,0,0.12)" stroke-linecap="round" stroke-width="0.8"/>
              <line id="Path-4-3" data-name="Path-4" x2="13.946" transform="translate(5.945 -12.965)" fill="none" stroke="rgba(0,0,0,0.12)" stroke-linecap="round" stroke-width="0.8"/>
              <line id="Path-4-4" data-name="Path-4" x2="13.946" transform="translate(6.327 -18.11)" fill="none" stroke="rgba(0,0,0,0.12)" stroke-linecap="round" stroke-width="0.8"/>
              <line id="Path-4-5" data-name="Path-4" x2="13.946" transform="translate(6.709 -23.256)" fill="none" stroke="rgba(0,0,0,0.12)" stroke-linecap="round" stroke-width="0.8"/>
            </g>
            <g id="Wom4.6" transform="translate(368 135)">
              <g id="RLeg-2" data-name="RLeg" transform="translate(77.917 94.809)">
                <path id="Path-38-4" data-name="Path" d="M29.293,157.682q-.1,5.55-.1,7.337c0,1.368.055,5.421-.1,6.044a25.7,25.7,0,0,0-.429,3.025l11.642.31A62.864,62.864,0,0,1,37.2,167.92q-.171-.757-1.471-10.238Z" fill="#915b3c" fill-rule="evenodd"/>
                <path id="Path-39-4" data-name="Path" d="M38.175,172.3c-.257-.223-1.826-3.762-4.606-3.762-3.106,0-3.95,3.649-4.055,3.762-.172.186-.968.112-1.161.465-.94,1.717-1.437,5.2-.576,6.462.915,1.346,13.375,1.369,14.064.1.722-1.338-.983-4.986-2.3-6.563C39.211,172.364,38.309,172.416,38.175,172.3Z" fill="#2e2e2e" fill-rule="evenodd"/>
                <path id="Path-40-2" data-name="Path" d="M0,2.479,22.744,0l.334.311C24.7,1.86,31.744,9.053,33.768,18.884c3.821,18.56-1.293,52.84-1.18,60.357s3.65,12.052,5.122,22.68,1.611,58.127,1.611,58.127c-3.9,2.319-7.337,2.485-11.991-.139Z" fill="#26553b" fill-rule="evenodd"/>
                <path id="Path-41-2" data-name="Path" d="M20.316,119.5,0,2.479,12.646,1.1C13.209,41.754,21.073,96.706,20.316,119.5Z" fill="rgba(255,255,255,0.19)" fill-rule="evenodd"/>
              </g>
              <g id="LLeg-2" data-name="LLeg" transform="translate(54.525 98.029)">
                <path id="Path-42" data-name="Path" d="M28.051,154.033l-8.275.122q.492,7.782-2.383,10.418L6.565,170.426c-.848.712-1.339,2.92.4,3.235,5.374.975,20.766-1.339,20.766-1.339Z" fill="#915b3c" fill-rule="evenodd"/>
                <path id="Path-43" data-name="Path" d="M27.807,165.171c-.556.03-1.261,3.179-4.415,4.794-3.615,1.851-8.873,1.147-11.158,1.409q-1.656.19-2.476-3.084-8.4,4.333-9.144,6.391c-.869,2.39,4.756,2.568,8.778,2.394s7.478-1.984,9.432-1.939,2.422,1.264,3.887,1.6c1.486.341,5.2.29,5.548-.778C28.619,174.849,28.995,165.107,27.807,165.171Z" fill="#2e2e2e" fill-rule="evenodd"/>
                <path id="Path-44" data-name="Path" d="M12.11.868,37.649,0l.191.354c1.239,2.357,8.03,16.156,5.933,31.842C40.83,54.212,31.753,80.022,31.387,83.965c-.653,7.03.653,12.12,1.189,19.381s-2.84,52.926-2.84,52.926c-3.79,2.286-8.3,2.734-14.033.069Q11.324,94.314,11.286,84.5C11.248,74.681,12.11.868,12.11.868Z" fill="#31694a" fill-rule="evenodd"/>
                <path id="Path-45" data-name="Path" d="M17.365,24.681l-.171,1.631c-1.763,17.2-3.252,53.729-2.623,59.363l.088.714q1.056,9.323-.563,46.8l-.957-14.342Q11.4,92.209,11.293,85.175l-.007-.678c-.038-9.816.824-83.63.824-83.63L17.5.685A152.025,152.025,0,0,1,17.365,24.681Z" fill="rgba(255,255,255,0.19)" fill-rule="evenodd"/>
              </g>
              <g id="Head-2" data-name="Head" transform="translate(74.092 10.695)">
                <path id="Path-46" data-name="Path" d="M2.282,6.675c-3.142.345-2.92,5.885.906,6.174.782,5.34,3.57,7.885,6.97,8.179l-.189,8.078L25.006,29.1a23.645,23.645,0,0,1-4.023-13.518C21.194,7.766,20.841.427,20.841.427L1.365.777Z" fill-rule="evenodd" fill="url(#linear-gradient-4)"/>
              </g>
              <g id="RArm-2" data-name="RArm" transform="translate(97.333 32.8)">
                <path id="Path-47" data-name="Path" d="M35.381,23.035a43.941,43.941,0,0,1-.449-7.447c.386-5.466-.352-10.077.841-10.794,1.53-.92,2.483,7.722,2.483,7.722S45.629-1.6,47.451.146s-1.181,8.528-.578,10.721-5.42,12.8-5.42,12.8L30.6,51.655,26.857,36.437Z" fill="#915b3c" fill-rule="evenodd"/>
                <path id="Path-48" data-name="Path" d="M3.071,28.83S16.31,49.719,19.235,53.77c3.068,4.248,8.486,6.13,12.331-.648q.7-1.24,2.516-4.7c-1.034-6.224-3.136-11.361-7.471-14.227L24.7,37S15.909,20.847,13.168,17.036C5.778,6.756-5.483,15.987,3.071,28.83Z" fill="#88cea7" fill-rule="evenodd"/>
              </g>
              <g id="Body-2" data-name="Body" transform="translate(63.146 38.036)">
                <path id="Path-49" data-name="Path" d="M38.951-3.329C42.306-8.27,47.9-25.042,48.214-28.815c.357-4.352-4.3-11.285-4.372-17.586s3.471-26.875,2.407-28.647c-.668-1.122-17.067-6.751-30.473-5.293C4.2-79.083-.413-71.564.16-70.212,1.726-66.521,8.99-55.75,8.25-50.721a301.474,301.474,0,0,1-7.09,29.9C-.941-14.5-.24-7.867,3.682-5.149A26.523,26.523,0,0,0,20.021,0C29.242-.018,38.691-2.945,38.951-3.329Z" transform="translate(48.234) rotate(180)" fill="#6bca95" fill-rule="evenodd"/>
                <path id="Path-50" data-name="Path" d="M4.413,14.016l.1-.052q9.319-4.665,11.2-.412Q18.067,18.888,4,43.127C2.87,37.8-.277,32.423.02,28.815.2,26.632,2.153,20.095,4.413,14.016Z" fill="rgba(0,0,0,0.16)" fill-rule="evenodd"/>
              </g>
              <g id="LArm-2" data-name="LArm" transform="translate(0 40.8)">
                <path id="Path-51" data-name="Path" d="M18.218,40.651s-9.284.543-10.885-.776S-.644,31.989.053,30.446s8.11,1.72,8.606.739c.637-1.26-2.653-5.757.23-6.019.742-.068,1.267,2.7,3.357,4.523s6.338,5.068,6.338,5.068L50.611,29.69,53.6,39.968Z" fill="#915b3c" fill-rule="evenodd"/>
                <path id="Path-52" data-name="Path" d="M69.5,2.778c-7.334,6.957-17.718,23.384-19.93,24.832q-.487.318-4.683,2c-1.766,4.711,1.219,10.049,5.558,12.335q4.759-.693,5.879-1.018c5.716-1.66,15.72-16.791,19.878-21.62C87.635,6.025,76.836-4.179,69.5,2.778Z" fill="#88cea7" fill-rule="evenodd"/>
              </g>
              <path id="Path-53" data-name="Path" d="M73.332-39.209c7.695,12.285,9.334,27.928,14.79,33.178,4.331,4.168,11.205,3.012,11.205,3.012s5.954,5.007,11.792,0,5.933-22.422,1.873-33.367S104.673-60,88.7-60C79.755-60,64.641-53.085,73.332-39.209Z" transform="translate(186.534) rotate(180)" fill="#28211d" fill-rule="evenodd"/>
            </g>
            <g id="Group-28" transform="translate(481 79)">
              <path id="Rectangle-27" data-name="Rectangle" d="M7.8,3.138H42.284a7.8,7.8,0,0,1,7.8,7.8V54.959a7.8,7.8,0,0,1-7.8,7.8H7.8a7.8,7.8,0,0,1-7.8-7.8V10.938A7.8,7.8,0,0,1,7.8,3.138Z" fill="#ff9f43" fill-rule="evenodd"/>
              <path id="Rectangle-28" data-name="Rectangle" d="M9.374,7.322H40.711a5.2,5.2,0,0,1,5.2,5.2V53.375a5.2,5.2,0,0,1-5.2,5.2H9.374a5.2,5.2,0,0,1-5.2-5.2V12.522A5.2,5.2,0,0,1,9.374,7.322Z" fill="#fff" fill-rule="evenodd"/>
              <g id="Group-29" transform="translate(34.433 42.885)">
                <ellipse id="Oval-8" data-name="Oval" cx="13.043" cy="13.075" rx="13.043" ry="13.075" transform="translate(0 0)" fill="#28c76f"/>
                <path id="Path-54" data-name="Path" d="M16.569,8.929a1.3,1.3,0,0,1,2.315,1.2l-.065.127-4.373,7.47a2.346,2.346,0,0,1-3.517.626l-.137-.123L7.435,14.983a1.306,1.306,0,0,1,1.7-1.976l.108.093,3.117,3.013Z" fill="#fff" fill-rule="evenodd"/>
              </g>
              <path id="Rectangle-29" data-name="Rectangle" d="M11.48,18.828H38.6a1.046,1.046,0,1,1,0,2.092H11.48a1.046,1.046,0,1,1,0-2.092Z" fill="#467fff" opacity="0.34"/>
              <path id="Rectangle-30" data-name="Rectangle" d="M11.48,27.2H38.6a1.046,1.046,0,1,1,0,2.092H11.48a1.046,1.046,0,1,1,0-2.092Z" fill="#467fff" opacity="0.34"/>
              <path id="Rectangle-31" data-name="Rectangle" d="M11.48,35.563H38.6a1.046,1.046,0,1,1,0,2.092H11.48a1.046,1.046,0,0,1,0-2.092Z" fill="#467fff" opacity="0.34"/>
              <rect id="Rectangle-32" data-name="Rectangle" width="27.129" height="11.506" transform="translate(11.478)" fill="#ff9f43"/>
            </g>
            <g id="Icon17" transform="translate(258 199)">
              <circle id="Oval-9" data-name="Oval" cx="14.762" cy="14.762" r="14.762" transform="translate(0 0)" fill="#ff9f43"/>
              <path id="Path-55" data-name="Path" d="M18.812,7.457a.627.627,0,0,1,.839-.041l.047.043L24.614,12.4a.627.627,0,0,1,.035.839l-.043.047-4.913,4.821a.627.627,0,0,1-1.063-.387l0-.06V15.656l-8.189-.043a.627.627,0,0,1-.621-.567l0-.06V13.321L5.865,17.373,9.813,21.31V19.689a.627.627,0,0,1,.566-.624l.06,0H16.22a.533.533,0,0,1,.054,1.063l-.054,0H10.879v2.241a.627.627,0,0,1-.566.624l-.06,0a.627.627,0,0,1-.4-.141l-.046-.041L4.805,17.822a.627.627,0,0,1-.048-.833l.042-.048L9.8,11.8a.627.627,0,0,1,1.072.374l0,.063v2.309l8.19.043a.627.627,0,0,1,.621.567l0,.06v1.4l3.851-3.779L19.692,8.965V10.51a.627.627,0,0,1-.566.624l-.06,0H13.389a.533.533,0,0,1-.054-1.063l.054,0h5.237V7.9a.627.627,0,0,1,.143-.4Z" transform="translate(-6.2 12.263) rotate(-38)" fill="#fff"/>
            </g>
          </g>
        </g>
      </g>
    </g>
  </g>
</svg>
