<svg xmlns="http://www.w3.org/2000/svg" xmlns:xlink="http://www.w3.org/1999/xlink" width="782.15" height="959.73" viewBox="0 0 782.15 959.73">
  <defs>
    <clipPath id="clip-create-account">
      <rect width="782.15" height="959.73"/>
    </clipPath>
  </defs>
  <g id="create-account" clip-path="url(#clip-create-account)">
    <g id="_-Pages-New" data-name="ðŸ“-Pages-New" transform="translate(206.645 32.312)">
      <g id="Create-Account-2" data-name="Create-Account" transform="translate(0 -120)">
        <g id="Illustrations" transform="translate(0 37)">
          <g id="illustration" transform="translate(0 83)">
            <g id="Shape">
              <g id="Rectangle" transform="translate(550.781 -32.36) rotate(90)">
                <path id="Path_9" data-name="Path 9" d="M741.645,205.146l168.843.157a10,10,0,0,1,9.991,9.991l.157,168.843a10,10,0,0,1-9.991,10.009h-.019l-168.843-.157A10,10,0,0,1,731.793,384l-.157-168.843a10,10,0,0,1,9.991-10.009Z" transform="translate(30.088 671.931) rotate(-45)" fill="#7666f8" fill-rule="evenodd" opacity="0.026"/>
                <path id="Path_10" data-name="Path 10" d="M274.258,24.85l96.535.09a10,10,0,0,1,9.991,9.991l.09,96.535a10,10,0,0,1-9.991,10.009h-.019l-96.535-.09a10,10,0,0,1-9.991-9.991l-.09-96.535A10,10,0,0,1,274.24,24.85Z" transform="translate(35.672 252.443) rotate(-45)" fill="#7367f0" fill-rule="evenodd" opacity="0.038"/>
                <path id="Path_11" data-name="Path 11" d="M464.544,116.53l344.865.32a10,10,0,0,1,9.991,9.991l.32,344.865a10,10,0,0,1-9.991,10.009h-.019l-344.865-.32a10,10,0,0,1-9.991-9.991l-.32-344.865a10,10,0,0,1,9.991-10.009Z" transform="translate(-24.901 538.128) rotate(-45)" fill="#7367f0" fill-rule="evenodd" opacity="0.066"/>
                <path id="Path_12" data-name="Path 12" d="M281.011,462.8a13.873,13.873,0,0,1,13.886,13.86V692.882a13.873,13.873,0,0,1-13.886,13.86H64.389A13.873,13.873,0,0,1,50.5,692.882V476.661A13.873,13.873,0,0,1,64.389,462.8Zm-41.658,55.441H106.047V651.3H239.353Z" transform="translate(-362.913 293.393) rotate(-45)" fill="#7367f0" opacity="0.09"/>
              </g>
            </g>
            <g id="Untitled-1">
              <g id="Group_2" data-name="Group 2" transform="translate(576 220) rotate(180)">
                <rect id="Rectangle-2" data-name="Rectangle" width="302" height="12" rx="6" transform="translate(0.5 -203.5)" fill="#babfc7"/>
                <path id="Path" d="M374.566-41.156c4.08-14.141-5.881-28.713-16.85-31.774s-18.8,6.546-22.881,20.687S336.344-24.16,347.316-21.1,370.49-27.019,374.566-41.156Z" fill="#915b3c"/>
                <path id="Path-2" data-name="Path" d="M314.941-314.5s27.539-42.712,31.26-44.571,13.017-2.318,9.532-9.272-4.882-34.356-8.124-35.751-31.148-4.636-26.962,0,6.758,2.318,8.87,10.678,5.075,24.146,1.126,27.395S302.5-333.546,302.5-333.546Z" fill="#915b3c"/>
                <path id="Path-3" data-name="Path" d="M175.522-332.5s-33.468-55.232-39.667-60.2-26.646-12.416-9.916-13.655,24.79,5.584,35.328,8.69,23.548,4.965,18.59,13.031-2.9,25.68,7.793,36.852S175.522-332.5,175.522-332.5Z" fill="#915b3c"/>
                <path id="Path-4" data-name="Path" d="M346.709-204.542s-82.943,2.169-115.826-24.829C211.648-258.546,165.116-344.628,161.5-354.1c2.482-2.483,16.444-6.972,22.646-6.341,18.306,21.831,42.5,40.711,52.119,57.836,11.859,21.107,15.514,31.658,34.746,33.522s62.67,8.069,75.7,8.069S346.709-204.542,346.709-204.542Z" fill="#33373e" fill-rule="evenodd"/>
                <path id="Path-5" data-name="Path" d="M419.5-406.5h-4.406L383.5-276.5h9.692Z" fill="#babfc7" fill-rule="evenodd"/>
                <path id="Path-6" data-name="Path" d="M288.5-406.5h4.331l35.669,135h-9.538Z" fill="#babfc7" fill-rule="evenodd"/>
                <path id="Path-7" data-name="Path" d="M393.965-199.5l-48.335-8.31s-64.23-.588-93.592-6.04c-26.711-4.954-30.658-35.19,0-76.843,17.409-23.655,32.129-42.538,62.228-63.807,7.661,5.6,10.587,7.734,12.706,21.2-2.181,2.978-7.82,21.605-9.57,25.252-16.648,34.68-38.873,47.294-39.2,50.705,3.729,6.04,98.835-31.493,117.746-9.412C414.025-245.673,393.965-199.5,393.965-199.5Z" fill="#42474f" fill-rule="evenodd"/>
                <path id="Path-8" data-name="Path" d="M395.121-90.048a50.628,50.628,0,0,1-37.786-9.384c-10.589-10.77-22.567-28.532-21.834-57.831.934-37.2-5.77-39.6,1.221-49.828,29.155-12,79.02-63.64,67.275-8.293-8.5,40.072,18.651,69.948-3.253,114.4C398.96-97.366,396.734-93.859,395.121-90.048Z" fill="#7367f0" fill-rule="evenodd"/>
                <path id="Path-9" data-name="Path" d="M335.5-171.112c-.568-19.432-3.322-25.159-1.218-31.25,11.927-1.214,33.74-5.971,39.19-13.57,6.224-8.7,12.449-9.937,9.558-3.52s-10.6,15.536,1.249,46.809,17.455,52.4,5.835,74.143Z" fill="#6258d4" fill-rule="evenodd"/>
                <path id="Path-10" data-name="Path" d="M396.5-90.246C388.623-72,386.689-51.5,386.689-51.5l-20.62-5.961s11.7-25.683.468-34.857A106.922,106.922,0,0,1,358.5-99.5,51.687,51.687,0,0,0,396.5-90.246Z" fill="#915b3c"/>
                <path id="Path-11" data-name="Path" d="M386.7-55.273c-1.219,1.062-2.727,2.387-4.352,3.773l-16.811-4.858-.035-.088c.39-.91,4.675-10.659,5.248-20.055,5.01,2.969,10.492,7.808,16.752,16.263C387.177-58.36,386.908-56.685,386.7-55.273Z" fill="#e38540"/>
                <path id="Path-12" data-name="Path" d="M381.471-96.089c-21.187-7.392-18.837-29.737-38.339-62.641-10.091-17.038-19.451-16.785-19.451-16.785a451.166,451.166,0,0,0-52.3,3.311c-17.926,2.19-19.062-3.144-6.614-7.6,25.147-8.992,51.239-18.676,72.282-16.341s57.024,56.027,58.88,70C398.5-106.827,392.142-92.358,381.471-96.089Z" fill="#f09959"/>
                <path id="Path-13" data-name="Path" d="M370.55-282.5c-1.311,0-2.649,0-4.026.051a199.675,199.675,0,0,0-38.241,4.728c-10.964,2.238-17.017,3.473-24.032.1a5.4,5.4,0,0,0-7.22,2.564,5.451,5.451,0,0,0,2.552,7.254c10.3,4.942,18.923,3.182,30.854.746a190.387,190.387,0,0,1,36.354-4.515c18.146-.455,29.211,2.249,34.807,8.5,5,5.567,6.459,14.919,4.6,29.434-.634,4.965-1.272,9.1-1.833,12.743-1.582,10.28-2.626,17.094-1.33,27.584,1.2,9.752,4.417,22.743,11.861,47.931a5.426,5.426,0,0,0,3.935,3.738,5.4,5.4,0,0,0,5.19-1.554,5.458,5.458,0,0,0,1.255-5.292C411.4-195.431,412.125-200,415.068-219.243c.569-3.71,1.214-7.914,1.868-13.019,2.293-17.9-.027-30-7.3-38.105C402.162-278.7,390.019-282.5,370.55-282.5Z" fill="#babfc7" fill-rule="evenodd"/>
                <path id="Path-14" data-name="Path" d="M177.335-379.5c-22.407-10.7-34.469-16.827-41.65-16.244-1.7.137-3.122.309-4.293.488-7.992-4.61-20.745-10.061-6.4-11.1,16.885-1.219,25.014,5.493,35.648,8.549s23.761,4.884,18.759,12.819a16.449,16.449,0,0,0-2.068,5.486Z" fill="#33373e" fill-rule="evenodd"/>
                <path id="Path-15" data-name="Path" d="M347.686-359.5c-.541-17.74-2.936-35.32-13.611-38.634a17.629,17.629,0,0,0-7.677-.695c-1.677-2.111-3.727-2.135-6.475-5.241-4.153-4.683,23.525-1.409,26.753,0s4.606,29.077,8.06,36.113C357.581-362.185,351.862-360.835,347.686-359.5Z" fill="#33373e" fill-rule="evenodd"/>
                <path id="Path-16" data-name="Path" d="M263.032-193.5H191.785a5.468,5.468,0,0,0-4.956,3.165l-28.792,62a5.474,5.474,0,0,0,.444,5.49,5.467,5.467,0,0,0,4.992,2.321,5.468,5.468,0,0,0,4.48-3.2l27.32-58.834h67.759a5.47,5.47,0,0,0,5.468-5.471,5.47,5.47,0,0,0-5.468-5.471Z" fill="#7367f0" fill-rule="evenodd"/>
                <path id="Path-17" data-name="Path" d="M276.893-172.117c-14.4.21-28.688,8.738-35.785,7.492s-30.271-17.213-27.356-17.834,21.3,8.835,21.943,8.979,4.592-6.549,14.4-9.006.066,7.3,30.482-1.821C300.341-190.242,276.893-172.117,276.893-172.117Z" fill="#915b3c"/>
                <path id="Path-18" data-name="Path" d="M393.418-72.5,395.5-89.677s-18.319-1.118-27.433-6.378S345.5-116.5,345.5-116.5l10.988,19.394L358.074-84.7Z" fill="#7367f0" fill-rule="evenodd"/>
                <path id="Path-19" data-name="Path" d="M385.319-93.839c-13.748,2.574-20.108-9.731-29.022-29.82s-24.129-44.482-27.163-47.63-50.989,0-50.989,0-1.451-13.875,0-15.53,9.74-1.45,9.74-1.45,3.318-2.648,6.426-4.741,29.437-6.028,41.664-5.427,23.426,1.659,25.083,3.524,35.029,53.221,37.1,71.651S392.334-95.157,385.319-93.839Z" fill="#7367f0" fill-rule="evenodd"/>
                <path id="Path-20" data-name="Path" d="M345.657-9.821c-26-1.239-21.925-40.135-21.925-40.135s6.756-2.076,20.9.243c-1.087,4.176-.621,14.842-.621,14.842a96.819,96.819,0,0,1,3.733-13.912c2.988-1.366,6.372-.154,12.127,1.227,2.953-12.349,11.3-17.582,17.016-19.369,6.314-1.976,13-4.33,20.458-.617s3.361,41.64-.6,49.269C390.8-6.827,380.912,3.423,363.81-1.987A127.794,127.794,0,0,1,345.657-9.821Z" fill="#33373e"/>
                <path id="Path-21" data-name="Path" d="M390.5-56.261l10.538-15.4s-11.676-29.2,22.279-42.437c26.594-10.365,23.46-28.623,11.445-46.973s7.192-34.429,7.192-34.429,2.927,20.341,28.767,24.183c35.232,5.232,45.208,52.59,18.895,76.269-21.779,19.594-28.4,3.365-43.143,20.949s-42.566,5.71-42.566,5.71L393.707-53.5Z" fill="#33373e"/>
                <path id="Path-22" data-name="Path" d="M502.209-142.5a.918.918,0,0,0-.454.115.937.937,0,0,0-.46.555.928.928,0,0,0,.072.715c8.921,16.2,1.645,35.815-2.021,41.131-.388.562-.756,1.135-1.164,1.739-3.6,5.578-8.087,12.518-32.012,16.792-5.764,1.027-10.43,4.424-15.368,8.021C440.6-66,429.035-57.583,403.911-69.055a.953.953,0,0,0-.994.039.936.936,0,0,0-.409.9.94.94,0,0,0,.628.766c26.136,11.925,38.176,3.162,48.8-4.57,4.759-3.462,9.255-6.736,14.584-7.694C491.259-84.031,496-91.355,499.789-97.237c.388-.592.745-1.154,1.117-1.693,3.844-5.566,11.481-26.124,2.122-43.085a.952.952,0,0,0-.818-.485Z" fill="#303c60"/>
                <path id="Path-23" data-name="Path" d="M385.359-71.5a37.338,37.338,0,0,0-5.538.447c-9.123,1.365-21.359,6.543-22.32,35.625a.949.949,0,0,0,.918.927.949.949,0,0,0,.977-.865c.389-11.989,2.775-20.857,7.076-26.361,3.265-4.183,7.6-6.55,13.622-7.452,8.442-1.263,14.038.292,16.63,4.626a.956.956,0,0,0,.834.466.956.956,0,0,0,.821-.488.953.953,0,0,0-.012-.954C395.988-69.5,391.625-71.5,385.359-71.5Z" fill="#303c60"/>
                <path id="Path-24" data-name="Path" d="M268.5-406.5h-6.952L234.5-199.5h15.295Z" fill="#babfc7" fill-rule="evenodd"/>
              </g>
            </g>
          </g>
        </g>
      </g>
    </g>
  </g>
</svg>
