<svg xmlns="http://www.w3.org/2000/svg" xmlns:xlink="http://www.w3.org/1999/xlink" width="744.34" height="544.94" viewBox="0 0 744.34 544.94">
  <defs>
    <filter id="Path_19" x="55.857" y="69.008" width="219.801" height="135.428" filterUnits="userSpaceOnUse">
      <feOffset dx="8" dy="9" input="SourceAlpha"/>
      <feGaussianBlur stdDeviation="14" result="blur"/>
      <feFlood flood-color="#1394e0" flood-opacity="0.231"/>
      <feComposite operator="in" in2="blur"/>
      <feComposite in="SourceGraphic"/>
    </filter>
    <filter id="Path_21" x="55.857" y="127.592" width="252.949" height="226.68" filterUnits="userSpaceOnUse">
      <feOffset dx="8" dy="9" input="SourceAlpha"/>
      <feGaussianBlur stdDeviation="14" result="blur-2"/>
      <feFlood flood-color="#1394e0" flood-opacity="0.231"/>
      <feComposite operator="in" in2="blur-2"/>
      <feComposite in="SourceGraphic"/>
    </filter>
    <linearGradient id="linear-gradient" x1="0.451" y1="1.282" x2="0.62" y2="-0.215" gradientUnits="objectBoundingBox">
      <stop offset="0" stop-color="#915b3c"/>
      <stop offset="1" stop-color="#784931"/>
    </linearGradient>
    <linearGradient id="linear-gradient-2" x1="0.317" y1="1.062" x2="0.551" y2="0.093" gradientUnits="objectBoundingBox">
      <stop offset="0" stop-color="#784931"/>
      <stop offset="1" stop-color="#915b3c"/>
    </linearGradient>
    <linearGradient id="linear-gradient-3" x1="0.423" y1="1.039" x2="0.5" y2="0.217" xlink:href="#linear-gradient-2"/>
    <linearGradient id="linear-gradient-4" x1="0.285" y1="0.014" x2="0.771" y2="0.908" gradientUnits="objectBoundingBox">
      <stop offset="0" stop-color="#28324f"/>
      <stop offset="1" stop-color="#222735"/>
    </linearGradient>
    <linearGradient id="linear-gradient-5" x1="0.444" y1="1.282" x2="0.5" y2="0.09" xlink:href="#linear-gradient-2"/>
    <linearGradient id="linear-gradient-6" x1="0.423" y1="0.719" x2="0.5" y2="0.385" xlink:href="#linear-gradient-2"/>
    <linearGradient id="linear-gradient-7" x1="0.708" y1="0.382" x2="0.325" y2="0.849" gradientUnits="objectBoundingBox">
      <stop offset="0" stop-color="#4d63a0"/>
      <stop offset="1" stop-color="#222735"/>
    </linearGradient>
    <linearGradient id="linear-gradient-8" x1="0.687" y1="-0.067" x2="0.687" y2="1" gradientUnits="objectBoundingBox">
      <stop offset="0" stop-color="#fe62be"/>
      <stop offset="1" stop-color="#fdb3a8"/>
    </linearGradient>
    <linearGradient id="linear-gradient-9" x1="0.687" y1="1.067" x2="0.687" y2="0" xlink:href="#linear-gradient-8"/>
    <linearGradient id="linear-gradient-10" x1="0.423" y1="1.038" x2="0.5" y2="0.218" xlink:href="#linear-gradient-2"/>
    <linearGradient id="linear-gradient-11" x1="0.435" y1="1.282" x2="0.5" y2="0.09" xlink:href="#linear-gradient-2"/>
    <linearGradient id="linear-gradient-12" x1="0.452" y1="1.282" x2="0.617" y2="-0.215" xlink:href="#linear-gradient"/>
    <linearGradient id="linear-gradient-13" x1="0.317" y1="1.061" x2="0.551" y2="0.093" xlink:href="#linear-gradient-2"/>
    <linearGradient id="linear-gradient-14" x1="0.423" y1="0.914" x2="0.5" y2="0.283" xlink:href="#linear-gradient-2"/>
    <linearGradient id="linear-gradient-15" x1="0.423" y1="0.776" x2="0.5" y2="0.355" xlink:href="#linear-gradient-2"/>
    <linearGradient id="linear-gradient-16" x1="0.687" y1="-0.228" x2="0.687" y2="1" gradientUnits="objectBoundingBox">
      <stop offset="0" stop-color="#9ff6ec"/>
      <stop offset="1" stop-color="#7d9dff"/>
    </linearGradient>
    <linearGradient id="linear-gradient-17" x1="0.452" y1="1.282" x2="0.5" y2="0.09" gradientUnits="objectBoundingBox">
      <stop offset="0" stop-color="#fdc6c6"/>
      <stop offset="1" stop-color="#a47070"/>
    </linearGradient>
    <linearGradient id="linear-gradient-18" x1="0.442" y1="1.282" y2="0.09" xlink:href="#linear-gradient-17"/>
    <linearGradient id="linear-gradient-19" x1="0.438" y1="1.282" y2="0.09" xlink:href="#linear-gradient-17"/>
    <linearGradient id="linear-gradient-20" x1="0.687" y1="1.228" x2="0.687" y2="0" xlink:href="#linear-gradient-16"/>
    <linearGradient id="linear-gradient-22" x1="0.462" y1="1.282" x2="0.5" y2="0.09" xlink:href="#linear-gradient-2"/>
    <linearGradient id="linear-gradient-23" x1="0.465" y1="1.282" x2="0.5" y2="0.09" xlink:href="#linear-gradient-2"/>
    <linearGradient id="linear-gradient-24" x1="0.457" y1="1.282" x2="0.5" y2="0.09" xlink:href="#linear-gradient-2"/>
    <linearGradient id="linear-gradient-25" x1="0.442" y1="1.282" x2="0.5" y2="0.09" xlink:href="#linear-gradient-2"/>
    <linearGradient id="linear-gradient-26" x1="0.423" y1="1.085" x2="0.5" y2="0.193" xlink:href="#linear-gradient-2"/>
    <clipPath id="clip-login-v2">
      <rect width="744.34" height="544.94"/>
    </clipPath>
  </defs>
  <g id="login-v2" clip-path="url(#clip-login-v2)">
    <g id="_-Pages-New" data-name="ðŸ“-Pages-New" transform="translate(-0.999 -2)">
      <g id="Login-" transform="translate(-113 -271)">
        <g id="Illustration" transform="translate(113.5 271.5)">
          <g id="Shape" transform="translate(0.5 0.5)">
            <g id="Group-59" transform="translate(0 0.819)">
              <path id="Path" d="M673.32,164.43a28.325,28.325,0,0,1,45.637,33.561l-.278.377-74.3,99.186a30.231,30.231,0,0,1-40.339,7.429l-.4-.258-46.774-30.6-47.159,68.646a28.342,28.342,0,0,1-39,7.577l-.388-.262a28.3,28.3,0,0,1-7.582-38.981l.262-.388,61.8-89.954a30.231,30.231,0,0,1,41.048-8.441l.414.266L613.9,243.755Z" fill="#7367f0" opacity="0.085"/>
              <path id="Path-2" data-name="Path" d="M430.118,3.475a7.6,7.6,0,0,1,12.638,8.448l-.092.137-18.516,26.9a8.575,8.575,0,0,1-11.8,2.082l-.136-.1-10.635-7.571L390.048,51.635A7.621,7.621,0,0,1,379.7,54.1l-.139-.085a7.573,7.573,0,0,1-2.472-10.322l.086-.139,15.285-24.214a8.574,8.574,0,0,1,11.8-2.677l.209.136.205.142,10.858,7.73Z" fill="#7367f0" opacity="0.085"/>
              <path id="_" data-name="+" d="M634.9,126.989V109.012h17.989a2.5,2.5,0,0,0,2.5-2.5V97.857a2.5,2.5,0,0,0-2.5-2.5H634.9V77.247a2.5,2.5,0,0,0-2.5-2.5h-8.8a2.5,2.5,0,0,0-2.5,2.5v18.11H603.119a2.5,2.5,0,0,0-2.5,2.5v8.655a2.5,2.5,0,0,0,2.5,2.5h17.989v17.977a2.5,2.5,0,0,0,2.5,2.5h8.8A2.5,2.5,0,0,0,634.9,126.989Z" fill="#00cfe8" fill-rule="evenodd" opacity="0.07"/>
              <path id="Oval" d="M91.6,20.181A91.551,91.551,0,1,1,0,111.732,91.577,91.577,0,0,1,91.6,20.181Zm0,45.3a46.247,46.247,0,1,0,46.274,46.247A46.261,46.261,0,0,0,91.6,65.484Z" fill="#00cfe8" fill-rule="evenodd" opacity="0.074"/>
            </g>
          </g>
          <g id="Meeting" transform="translate(60.5 86.5)">
            <g id="Group-63" transform="translate(0.596)">
              <path id="Rectangle" d="M16,0H486.128a16,16,0,0,1,16,16V220.224a16,16,0,0,1-16,16H16a16,16,0,0,1-16-16V16A16,16,0,0,1,16,0Z" fill="#e7fcff" fill-rule="evenodd"/>
              <path id="Rectangle-2" data-name="Rectangle" d="M23.551,0H486.128a16,16,0,0,1,16,16V220.224a16,16,0,0,1-16,16H23.551a16,16,0,0,1-16-16V16A16,16,0,0,1,23.551,0Z" fill="#00cfe8" fill-rule="evenodd" opacity="0.383"/>
              <path id="Rectangle-3" data-name="Rectangle" d="M25.1,7.559H484.578a10,10,0,0,1,10,10V218.665a10,10,0,0,1-10,10H25.1a10,10,0,0,1-10-10V17.559A10,10,0,0,1,25.1,7.559Z" fill="#e7fcff" fill-rule="evenodd"/>
              <path id="Rectangle-4" data-name="Rectangle" d="M220.254,208.822h69.171a6,6,0,0,1,6,6v13.843H214.254V214.822A6,6,0,0,1,220.254,208.822Z" fill="#d4efff" fill-rule="evenodd"/>
              <path id="Rectangle-5" data-name="Rectangle" d="M227.8,208.822h69.171a6,6,0,0,1,6,6v21.4H221.8v-21.4A6,6,0,0,1,227.8,208.822Z" fill="#91d6ff" fill-rule="evenodd"/>
            </g>
            <g id="ElementCard20" transform="translate(29.856 17.008)">
              <g id="Rectangle-6" data-name="Rectangle">
                <g transform="matrix(1, 0, 0, 1, -89.86, -102.01)" filter="url(#Path_19)">
                  <path id="Path_19-2" data-name="Path 19" d="M5.389,0H130.413A5.389,5.389,0,0,1,135.8,5.389v40.65a5.389,5.389,0,0,1-5.389,5.389H5.389A5.389,5.389,0,0,1,0,46.039V5.389A5.389,5.389,0,0,1,5.389,0Z" transform="translate(89.86 102.01)"/>
                </g>
                <path id="Path_20" data-name="Path 20" d="M5.389,0H130.413A5.389,5.389,0,0,1,135.8,5.389v40.65a5.389,5.389,0,0,1-5.389,5.389H5.389A5.389,5.389,0,0,1,0,46.039V5.389A5.389,5.389,0,0,1,5.389,0Z" fill="#fff"/>
              </g>
              <path id="Rectangle-7" data-name="Rectangle" d="M41.708,29.023H67.136a1.528,1.528,0,0,1,0,3.055H41.708a1.528,1.528,0,1,1,0-3.055Z" fill="#c7c1ff" fill-rule="evenodd" opacity="0.454"/>
              <path id="Rectangle-8" data-name="Rectangle" d="M41.708,20.367H56.964a1.528,1.528,0,1,1,0,3.055H41.708a1.528,1.528,0,1,1,0-3.055Z" fill="#8478ff" fill-rule="evenodd"/>
              <g id="Group-9" transform="translate(78.327 13.239)">
                <path id="Path-3" data-name="Path" d="M36.63,5.037a6.485,6.485,0,0,1,10.726.592.769.769,0,1,1-1.319.792,4.947,4.947,0,0,0-8.08-.583l-.1.131L35.469,9.106A15.18,15.18,0,0,1,19.51,14.6l-.254-.069-1.919-.542q-.185-.052-.373-.094a6.611,6.611,0,0,0-7.838,4.868l-.04.172-.4,1.8a4.661,4.661,0,0,1-7.314,2.755.77.77,0,0,1,.911-1.24,3.123,3.123,0,0,0,4.861-1.687l.039-.159.4-1.8a8.149,8.149,0,0,1,9.711-6.212l.231.054.229.061,1.919.542A13.643,13.643,0,0,0,34.089,8.375l.156-.2Z" fill="#8478ff" fill-rule="evenodd"/>
                <path id="Path-4" data-name="Path" d="M29.7,4.106A6.93,6.93,0,0,1,40.773,1.9a17.525,17.525,0,0,1,3.686,5.892.769.769,0,1,1-1.415.6,16.159,16.159,0,0,0-3.325-5.375A5.393,5.393,0,0,0,31.17,4.591l-.069.147-.495,1.1a6.256,6.256,0,0,1-9.016,2.748,3.708,3.708,0,0,0-5.544,2.188l-.034.135-.856,3.742A6.64,6.64,0,0,1,4.33,18.187l-.143-.128L.7,14.845a.77.77,0,0,1,.977-1.186l.065.053,3.486,3.214a5.1,5.1,0,0,0,8.381-2.419l.05-.2.856-3.742a5.245,5.245,0,0,1,7.7-3.4l.187.112a4.716,4.716,0,0,0,6.5-1.511q.112-.18.208-.37l.091-.191Z" fill="#c7c1ff" fill-rule="evenodd"/>
              </g>
              <ellipse id="Oval-2" data-name="Oval" cx="10.427" cy="10.438" rx="10.427" ry="10.438" transform="translate(12.207 15.785)" fill="#8478ff"/>
            </g>
            <g id="ElementCard3" transform="translate(29.856 75.592)">
              <g id="Rectangle-9" data-name="Rectangle">
                <g transform="matrix(1, 0, 0, 1, -89.86, -160.59)" filter="url(#Path_21)">
                  <path id="Path_21-2" data-name="Path 21" d="M5,0H163.949a5,5,0,0,1,5,5V137.68a5,5,0,0,1-5,5H5a5,5,0,0,1-5-5V5A5,5,0,0,1,5,0Z" transform="translate(89.86 160.59)"/>
                </g>
                <path id="Path_22" data-name="Path 22" d="M5,0H163.949a5,5,0,0,1,5,5V137.68a5,5,0,0,1-5,5H5a5,5,0,0,1-5-5V5A5,5,0,0,1,5,0Z" fill="#fff"/>
              </g>
              <g id="Path-3-2" data-name="Path-3">
                <path id="Path_23" data-name="Path 23" d="M22.652,109.608q20.085-5.774,28.941-17.561C60.45,80.261,63.435,68.837,78.667,68.837s17.184,17.5,33.65,17.5S129.683,64.02,135.155,55.16q5.473-8.86,14.917-8.86"/>
                <path id="Path_24" data-name="Path 24" d="M22.652,109.608q20.085-5.774,28.941-17.561C60.45,80.261,63.435,68.837,78.667,68.837s17.184,17.5,33.65,17.5S129.683,64.02,135.155,55.16q5.473-8.86,14.917-8.86" fill="none" stroke="#8eeaf6" stroke-linecap="round" stroke-width="4.004"/>
              </g>
              <path id="Path-3-3" data-name="Path-3" d="M22.652,108.39Q42.737,102.64,51.593,90.9c8.856-11.735,11.842-23.11,27.073-23.11s17.184,17.422,33.65,17.422S129.683,63,135.155,54.177q5.473-8.822,14.917-8.822v74.4a3.08,3.08,0,0,1-3.08,3.08H25.732a3.08,3.08,0,0,1-3.08-3.08V108.39Z" fill="#cef9ff" fill-rule="evenodd" opacity="0.415"/>
              <rect id="Rectangle-10" data-name="Rectangle" width="52.856" height="5.669" transform="translate(13.214 14.173)" fill="#8eeaf6"/>
              <path id="Rectangle-11" data-name="Rectangle" d="M16.049,28.347H34.919a2.835,2.835,0,0,1,0,5.669H16.049a2.835,2.835,0,0,1,0-5.669Z" fill="rgba(142,234,246,0.4)" fill-rule="evenodd"/>
              <path id="Oval-3" data-name="Oval" d="M136.386,20.788a3.307,3.307,0,1,0-3.3-3.307A3.305,3.305,0,0,0,136.386,20.788Z" fill="rgba(142,234,246,0.45)" fill-rule="evenodd"/>
              <path id="Oval-4" data-name="Oval" d="M145.825,20.788a3.307,3.307,0,1,0-3.3-3.307A3.305,3.305,0,0,0,145.825,20.788Z" fill="rgba(142,234,246,0.45)" fill-rule="evenodd"/>
              <path id="Oval-5" data-name="Oval" d="M155.263,20.788a3.307,3.307,0,1,0-3.3-3.307A3.305,3.305,0,0,0,155.263,20.788Z" fill="rgba(142,234,246,0.45)" fill-rule="evenodd"/>
            </g>
            <g id="ElementCard11" transform="translate(225.233 30.237)">
              <g id="Rectangle-12" data-name="Rectangle">
                <path id="Path_25" data-name="Path 25" d="M7.484,0H232.7a7.484,7.484,0,0,1,7.484,7.484V158a7.484,7.484,0,0,1-7.484,7.484H7.484A7.484,7.484,0,0,1,0,158V7.484A7.484,7.484,0,0,1,7.484,0Z"/>
                <path id="Path_26" data-name="Path 26" d="M7.484,0H232.7a7.484,7.484,0,0,1,7.484,7.484V158a7.484,7.484,0,0,1-7.484,7.484H7.484A7.484,7.484,0,0,1,0,158V7.484A7.484,7.484,0,0,1,7.484,0Z" fill="#fff"/>
              </g>
              <g id="Group-26" transform="translate(31.789 84.864)">
                <path id="Path-5" data-name="Path" d="M8.83,0V59.186H0V0Z" fill="#e7e4ff" fill-rule="evenodd"/>
                <path id="Path-6" data-name="Path" d="M8.83,14.144V59.186H0V14.144Z" fill="#c7c1ff" fill-rule="evenodd"/>
                <path id="Path-7" data-name="Path" d="M8.83,42.432V59.186H0V42.432Z" fill="#8478ff" fill-rule="evenodd"/>
              </g>
              <g id="Group-26-2" data-name="Group-26" transform="translate(52.981 70.72)">
                <path id="Path-8" data-name="Path" d="M8.83,0V73.33H0V0Z" fill="#e7e4ff" fill-rule="evenodd"/>
                <path id="Path-9" data-name="Path" d="M8.83,21.216V73.33H0V21.216Z" fill="#c7c1ff" fill-rule="evenodd"/>
                <path id="Path-10" data-name="Path" d="M8.83,56.576V73.33H0V56.576Z" fill="#8478ff" fill-rule="evenodd"/>
              </g>
              <g id="Group-26-3" data-name="Group-26" transform="translate(74.174 81.328)">
                <path id="Path-11" data-name="Path" d="M8.83,0V62.722H0V0Z" fill="#e7e4ff" fill-rule="evenodd"/>
                <path id="Path-12" data-name="Path" d="M8.83,21.216V62.722H0V21.216Z" fill="#c7c1ff" fill-rule="evenodd"/>
                <path id="Path-13" data-name="Path" d="M8.83,49.5V62.722H0V49.5Z" fill="#8478ff" fill-rule="evenodd"/>
              </g>
              <g id="Group-26-4" data-name="Group-26" transform="translate(95.366 63.648)">
                <path id="Path-14" data-name="Path" d="M8.83,0V80.4H0V0Z" fill="#e7e4ff" fill-rule="evenodd"/>
                <path id="Path-15" data-name="Path" d="M8.83,21.216V80.4H0V21.216Z" fill="#c7c1ff" fill-rule="evenodd"/>
                <path id="Path-16" data-name="Path" d="M8.83,49.5V80.4H0V49.5Z" fill="#8478ff" fill-rule="evenodd"/>
              </g>
              <g id="Group-26-5" data-name="Group-26" transform="translate(116.559 49.504)">
                <path id="Path-17" data-name="Path" d="M8.83,0V94.546H0V0Z" fill="#e7e4ff" fill-rule="evenodd"/>
                <path id="Path-18" data-name="Path" d="M8.83,28.288V94.546H0V28.288Z" fill="#c7c1ff" fill-rule="evenodd"/>
                <path id="Path-19" data-name="Path" d="M8.83,70.72V94.546H0V70.72Z" fill="#8478ff" fill-rule="evenodd"/>
              </g>
              <g id="Group-26-6" data-name="Group-26" transform="translate(137.751 70.72)">
                <path id="Path-20" data-name="Path" d="M8.83,0V73.33H0V0Z" fill="#e7e4ff" fill-rule="evenodd"/>
                <path id="Path-21" data-name="Path" d="M8.83,21.216V73.33H0V21.216Z" fill="#c7c1ff" fill-rule="evenodd"/>
                <path id="Path-22" data-name="Path" d="M8.83,53.747V73.33H0V53.747Z" fill="#8478ff" fill-rule="evenodd"/>
              </g>
              <g id="Group-26-7" data-name="Group-26" transform="translate(158.943 77.792)">
                <path id="Path-23" data-name="Path" d="M8.83,0V66.258H0V0Z" fill="#e7e4ff" fill-rule="evenodd"/>
                <path id="Path-24" data-name="Path" d="M8.83,14.144V66.258H0V14.144Z" fill="#c7c1ff" fill-rule="evenodd"/>
                <path id="Path-25" data-name="Path" d="M8.83,41.725V66.258H0V41.725Z" fill="#8478ff" fill-rule="evenodd"/>
              </g>
              <g id="Group-26-8" data-name="Group-26" transform="translate(180.136 63.648)">
                <path id="Path-26" data-name="Path" d="M8.83,0V80.4H0V0Z" fill="#e7e4ff" fill-rule="evenodd"/>
                <path id="Path-27" data-name="Path" d="M8.83,28.288V80.4H0V28.288Z" fill="#c7c1ff" fill-rule="evenodd"/>
                <path id="Path-28" data-name="Path" d="M8.83,62.941V80.4H0V62.941Z" fill="#8478ff" fill-rule="evenodd"/>
              </g>
              <g id="Group-26-9" data-name="Group-26" transform="translate(201.328 77.792)">
                <path id="Path-29" data-name="Path" d="M8.83,0V66.258H0V0Z" fill="#e7e4ff" fill-rule="evenodd"/>
                <path id="Path-30" data-name="Path" d="M8.83,14.144V66.258H0V14.144Z" fill="#c7c1ff" fill-rule="evenodd"/>
                <path id="Path-31" data-name="Path" d="M8.83,48.8V66.258H0V48.8Z" fill="#8478ff" fill-rule="evenodd"/>
              </g>
              <path id="Rectangle-13" data-name="Rectangle" d="M31.085,28.288h70.637a2.122,2.122,0,0,1,0,4.243H31.085a2.122,2.122,0,0,1,0-4.243Z" fill="#8c81ff" fill-rule="evenodd" opacity="0.576"/>
              <rect id="Rectangle-14" data-name="Rectangle" width="39.559" height="4.243" transform="translate(28.963 16.266)" fill="#8478ff"/>
            </g>
            <g id="Chair4" transform="translate(411.171 275.91)">
              <path id="Path-32" data-name="Path" d="M92.312-88.972,80.869-179.379l6,.08L98.311-89.818Z" transform="translate(179.181) rotate(180)" fill="#bfe7ff" fill-rule="evenodd"/>
              <path id="Path-33" data-name="Path" d="M0,93.738a9.445,9.445,0,0,1,9.445-9.445H47.208a11.088,11.088,0,0,0,11.039-10.05L64.285,10.05A11.088,11.088,0,0,1,75.324,0h23.7a11.088,11.088,0,0,1,11.088,11.088q0,.425-.033.849l-6.224,81.007A11.088,11.088,0,0,1,92.8,103.183H9.445A9.445,9.445,0,0,1,0,93.738Z" fill="#91d6ff" fill-rule="evenodd"/>
              <path id="Combined-Shape" d="M98.77,0a11.174,11.174,0,0,1,1.691.128,11.044,11.044,0,0,1,.134,1.724q0,.426-.033.852l-6.22,80.718A11.088,11.088,0,0,1,83.288,93.658H0q0-.091,0-.183a9.421,9.421,0,0,1,9.421-9.421h37.65A11.088,11.088,0,0,0,58.11,74.006l6.033-63.959A11.088,11.088,0,0,1,75.182,0Z" fill="#bfe7ff" fill-rule="evenodd"/>
            </g>
            <g id="Wom1.4" transform="translate(528 203) rotate(180)">
              <g id="Head" transform="translate(32.719 -0.465)">
                <path id="Path-34" data-name="Path" d="M10.006-56.875C-2.193-54.033-3-37.281,6.278-31.47-3.286-11.41,18.831,8.507,33.981-3.776,43.913.478,52.167-16.121,42.925-29.013,46.8-51.148,38.914-56.869,24.7-57.112Z" fill="#422851" fill-rule="evenodd"/>
                <path id="Path-35" data-name="Path" d="M10.157-52.874s5.934,1.394,6.14,11.122.061,13.049.061,13.049l13.07.236s.142-10.842.145-14.763c.005-10.533,7.341-9.643,7.341-9.643s-1.525-8.54-13.368-9.207C14.3-62.6,10.157-52.874,10.157-52.874Z" fill-rule="evenodd" fill="url(#linear-gradient)"/>
                <path id="Path-36" data-name="Path" d="M13.312-23.846c-5.831.226-4.88-8.315,1.177-8.3,0,0,3.518-12.132,15.732-12.132,9.919,0,10.565,14.14,10.655,16.961.1,3.008.109,12.889.109,12.889l-27.9.013Z" fill-rule="evenodd" fill="url(#linear-gradient-2)"/>
                <path id="Path-37" data-name="Path" d="M28.083-35.158a5.237,5.237,0,0,1,5.923-2.089" transform="translate(-9.706 -11.371) rotate(18)" fill="none" stroke="#57331f" stroke-linecap="round" stroke-width="1.5" fill-rule="evenodd"/>
                <path id="Path-38" data-name="Path" d="M29.782-39.029a2.764,2.764,0,0,1,2.554.058" transform="translate(1.385 1.06) rotate(-2)" fill="none" stroke="#784931" stroke-linecap="round" stroke-width="1" fill-rule="evenodd"/>
                <path id="Path-8-2" data-name="Path-8" d="M13.58-28.582c.367,1.321.2,2.475-1.107,3" transform="translate(-5.756 -3.644) rotate(13)" fill="none" stroke="#57331f" stroke-linecap="round" stroke-width="1" fill-rule="evenodd"/>
                <path id="Path-39" data-name="Path" d="M12.389-22.791s3.2-4.291,3.843-4.313.874,5.58.874,5.58c3.92.3,13.842,2.276,16.274,6.882,1.7-4.063,4.952-5.868,7.088-5.522l.4-8.633,1,17.355H11.607Z" fill="#422851" fill-rule="evenodd"/>
              </g>
              <g id="LLeg" transform="translate(36.894 -131.693)">
                <path id="Path-40" data-name="Path" d="M65.7-93.2s-5.231-10.571-.943-13.9S80.4-116.675,80.4-116.675l-30.053,1.89,6.68,23.054Z" fill-rule="evenodd" fill="url(#linear-gradient-3)"/>
                <path id="Path-41" data-name="Path" d="M53.251-103.258c1.483-.174-.1-5.17,3.11-5.55s4.762,4.354,8.4,2.853,16.9-9.259,17.423-12.431-4.413-4.1-11.19-3.388-8.026,3.128-13.114,2.157-8.888.577-8.72,4.292S51.768-103.085,53.251-103.258Z" fill="#222d4e" fill-rule="evenodd"/>
                <path id="Path-14-2" data-name="Path-14" d="M66.42-106.723l-.66-.99a1,1,0,0,1,.278-1.387q.033-.022.067-.041l8.966-5.006a1,1,0,0,1,.94-.019l1.392.707h0c-2.186,1.584-3.973,2.774-5.949,3.943C69.937-108.62,68.258-107.695,66.42-106.723Z" fill="rgba(255,255,255,0.54)" fill-rule="evenodd"/>
                <path id="Path-42" data-name="Path" d="M20.43-.032c9.1-.406,59.738-11.613,68.939-13.517s16.979-12.206,9.963-24.135c-7.88-13.391-28.211-51.422-33.147-60-2.443-4.243-14.769-1.864-11.874,5.258,5.4,13.277,7.9,46.63,21.664,58.791,0,0-46.277-8.058-66.266,1.172C-4.82-25.748-1.533.951,20.43-.032Z" fill-rule="evenodd" fill="url(#linear-gradient-4)"/>
              </g>
              <g id="LArm" transform="translate(64.335 -56.189)">
                <path id="Path-43" data-name="Path" d="M57.456-21.7s-.1,7.407,2.487,11.278,2.692,7.983,4.652,7.848.019-9.692.019-9.692a25.159,25.159,0,0,1,4.273,2.153c1.786,1.2,7.2,7.13,8.469,6.079,2.146-1.79-1.311-11.885-3.194-13.9S61.954-26.6,61.954-26.6Z" fill-rule="evenodd" fill="url(#linear-gradient-5)"/>
                <path id="Path-44" data-name="Path" d="M1.542-17.265C5.775-27.087,13.524-45.13,16.719-50.514c4-6.742,10.317-9.712,17.709-4.71,7.767,5.256,29.155,25.755,29.782,30.4S59.6-14.61,54.86-17.494,30.442-36.767,30.442-36.767,22.5-16.394,16.109-4.593C10.576,5.617-4.9-2.333,1.542-17.265Z" fill="#6a5ee3" fill-rule="evenodd"/>
                <path id="Path-45" data-name="Path" d="M30.524-36.777q2.133-7.24,2.632-6.821t-.381,8.713Z" fill="rgba(0,0,0,0.3)" fill-rule="evenodd"/>
              </g>
              <g id="Body" transform="translate(23.58 -51.613)">
                <path id="Path-46" data-name="Path" d="M0-10.007S10.2-44.178,10.5-50.646,2.159-76.127,3.631-80.932C7.025-92.037,50.348-96.818,52-81.88c.772,6.967-.835,13.219,1.016,21.428s9.259,20.408,5.053,31.876S54.995-6.5,51.987-4.49,41.948-.355,41.948-.355C38.529-5.389,26.986-5.316,21.479,0,21.479,0,7.8-2.656,0-10.007Z" fill="#7367f0" fill-rule="evenodd"/>
                <path id="Path-47" data-name="Path" d="M9.14-15.541c6.8-10.8,6.778-29.591,10.43-32.052s17.863-.046,17.863-2S17.793-69.4,21.017-77.944q2.532-6.708-1.374-12l-.85.185c-7.738,1.75-13.959,4.892-15.162,8.828C2.159-76.127,11.8-57.115,11.5-50.646,11.242-45.155,3.135-19.7.691-12.135Q3.676-6.865,9.14-15.541Z" fill="rgba(0,0,0,0.2)" fill-rule="evenodd"/>
              </g>
              <g id="RArm" transform="translate(0 -58.763)">
                <path id="Path-48" data-name="Path" d="M44.313-37.031s8.591,7.608,11.221,8.49,18.032,1.943,17.935-.052c-.11-2.137-8.383-2.014-9.24-3.066S63.176-39.9,59.936-40.7s-12.929-2.2-12.929-2.2Z" fill-rule="evenodd" fill="url(#linear-gradient-6)"/>
                <path id="Path-49" data-name="Path" d="M21.458-4.82C12.407-17.6,4.679-37.07,1.713-44.66S1.739-63.7,14.782-61.451C27.8-59.209,48.517-47.029,50.809-43.476s-1.19,10.019-5.575,9.172c-4.062-.783-24.213-9.356-24.213-9.356S33.985-20.669,37.15-14.506C42.438-4.213,29.43,6.441,21.458-4.82Z" fill="#6a5ee3" fill-rule="evenodd"/>
                <path id="Path-50" data-name="Path" d="M21.226-43.5q-6.79-3.375-5.962-1.96t8.553,6.389Z" fill="rgba(0,0,0,0.3)" fill-rule="evenodd"/>
              </g>
            </g>
            <g id="Men3.2" transform="translate(108 113)">
              <g id="LLeg-2" data-name="LLeg" transform="translate(43 123)">
                <path id="Path-51" data-name="Path" d="M23.061,188.194s-.136,8.711,5.21,11.806S41.9,208.844,41.9,208.844l-31.508,1.068.9-21.8Z" fill="#915b3c" fill-rule="evenodd"/>
                <path id="Path-52" data-name="Path" d="M9.292,197.794l-.513,14.132H16.1l.5-1.821a11.205,11.205,0,0,1,4.348.673c1.683.832,1.909,1.235,1.909,1.235l23.214.049s1.145-4.568-5.931-7.871S27.91,196.2,26.931,195.717a4.339,4.339,0,0,0-4.375.38c-1.4,1.136-2.509,4.122-5.682,4.216C12.789,200.433,10.442,195.4,9.292,197.794Z" fill="#4b4b4b" fill-rule="evenodd"/>
                <line id="Path-38-2" data-name="Path-38" x1="2.407" y2="2.328" transform="translate(26.724 197.25)" fill="none" stroke="#fff" stroke-linecap="round" stroke-width="2"/>
                <line id="Path-38-3" data-name="Path-38" x1="2.407" y2="2.328" transform="translate(30.233 199.014)" fill="none" stroke="#fff" stroke-linecap="round" stroke-width="2"/>
                <line id="Path-38-4" data-name="Path-38" x1="2.407" y2="2.328" transform="translate(33.742 200.779)" fill="none" stroke="#fff" stroke-linecap="round" stroke-width="2"/>
                <path id="Path-53" data-name="Path" d="M0,0S8.753,96.38,9.026,103.079s-2.811,18.262-2.751,30.795q.06,12.532,1.126,56.7l19.31.409q8.115-79.817,8.2-91.786c.087-11.969.831-98.046.831-98.046Z" fill="#383838" fill-rule="evenodd"/>
                <path id="Path-54" data-name="Path" d="M13.919,106.079l.021.238q.436,6.129-7.613,40.327l-.053-12.771h0c-.059-12.309,2.915-23.682,2.763-30.431l-.011-.364c-.092-2.258-1.147-14.7-2.505-30.207l.634,2.271Q12.739,95.321,13.919,106.079Z" fill="rgba(255,255,255,0.19)" fill-rule="evenodd" opacity="0.284"/>
              </g>
              <g id="RLeg" transform="translate(12 123)">
                <path id="Path-55" data-name="Path" d="M7.477,186.966,3.753,209.525l13.728-.069.434-22.844Z" fill="#784931" fill-rule="evenodd"/>
                <path id="Path-56" data-name="Path" d="M3.637,199.556l-.111,3.353h0q-2.057,2.282-2.965,9.129c0,3.19,21.215,3.095,22.235,0q-1.111-7.457-3.508-9.332l-.012-3.322a3,3,0,0,0-2.222-2.886l-2.063-.554h0c-2.007-2.927-4.742-2.824-7.085.366L6,196.724A3,3,0,0,0,3.637,199.556Z" fill="#4b4b4b" fill-rule="evenodd"/>
                <line id="Path-39-2" data-name="Path-39" x2="5.557" transform="translate(8.685 198.749)" fill="none" stroke="#fff" stroke-linecap="round" stroke-width="2"/>
                <line id="Path-39-3" data-name="Path-39" x2="5.557" transform="translate(8.685 201.393)" fill="none" stroke="#fff" stroke-linecap="round" stroke-width="2"/>
                <line id="Path-39-4" data-name="Path-39" x2="3.79" transform="translate(9.569 204.037)" fill="none" stroke="#fff" stroke-linecap="round" stroke-width="2"/>
                <path id="Path-57" data-name="Path" d="M14.4,1.265S8.267,67.331,8.35,79.982s1.888,18.209-.68,27.284Q5.1,116.343,2.911,188.786L21.9,190.864Q34.035,113.346,35.354,102.6C36.674,91.851,52.98.353,52.98.353Z" fill="#2e2e2e" fill-rule="evenodd"/>
                <path id="Path-58" data-name="Path" d="M19.53,46.1,18.372,50.3c-3.392,12.375-6.523,25.462-5.7,44.157l.04.854q.3,6.074-7.729,70.508l-.509,3.019q-.788,4.619-1.4,7.882l.116-3.8c.683-21,2.519-58.7,4.485-65.646,2.568-9.076.764-14.632.68-27.284-.058-8.856,2.93-43.885,4.728-64.106L14.4,1.265l8.017-.189.019,2.251Q22.648,34.485,19.53,46.1Z" fill="rgba(255,255,255,0.19)" fill-rule="evenodd" opacity="0.284"/>
              </g>
              <g id="LArm-2" data-name="LArm" transform="translate(62 17)">
                <g id="Group-6" transform="translate(56.695)">
                  <path id="Path-59" data-name="Path" d="M1.139,25.566S-.446,16.828.124,15.058c.487-1.529,5.089-3.735,5.089-3.735s8-12.506,9.756-11.232C16.394,1.123,10.8,10.343,10.8,10.343S15.9,15.636,15.83,18,7.5,27.774,7.5,27.774Z" fill="#915b3c" fill-rule="evenodd"/>
                  <path id="Path-60" data-name="Path" d="M5.385,11.2s3.545-.477,4.109.614c.481.93-2.464,3.567-2.464,4.308s.042,6.352.279,6.4,3.551-9.155,2.844-11.1C9.571,9.821,5.385,11.2,5.385,11.2Z" fill="#915b3c" fill-rule="evenodd"/>
                </g>
                <path id="Path-61" data-name="Path" d="M15.546,36.684C6.26,28.662-7.683,43.124,7.865,56.569,13.8,61.7,32.428,74.493,37,77.307c7.271,4.479,13.246.437,15.7-6.609,2.083-5.974,14.541-37.954,12.956-42.652-1.034-3.064-6.582-6.044-9.367-3.634-4.07,3.523-16.52,34.427-16.52,34.427S26.1,45.8,15.546,36.684Z" fill="#877bff" fill-rule="evenodd"/>
                <path id="Path-62" data-name="Path" d="M39.766,58.839q4.078,4.946,4.372,4.191T40.9,55.918Z" fill="rgba(0,0,0,0.16)" fill-rule="evenodd"/>
                <path id="Path-41-2" data-name="Path-41" d="M55.2,26.393c3.239-1.5,6.779.354,8.729,3.33" fill="none" stroke="#5386bf" stroke-linecap="round" stroke-width="1" fill-rule="evenodd"/>
              </g>
              <g id="Head-2" data-name="Head" transform="translate(37)">
                <path id="Path-63" data-name="Path" d="M.741,44.431s5.338-1.229,5.523-9.8.055-11.5.055-11.5l12.656-.208s.128,9.557.13,13.014c0,7.525,5.706,9.559,5.706,9.559s-.474,8.229-11.129,8.816C5.364,54.765.741,44.431.741,44.431Z" fill="#f8c5c5" fill-rule="evenodd"/>
                <g id="Head1" transform="translate(0.526)">
                  <path id="Path-64" data-name="Path" d="M29.725,13.881l-.282,8.1a18.7,18.7,0,0,0,4.485-10.553Z" fill-rule="evenodd" fill="url(#linear-gradient-7)"/>
                  <path id="Path-65" data-name="Path" d="M4.632,18.791c-5.246-.2-4.39,7.329,1.059,7.319,0,0,5.856,11.544,15.05,11.574,4.429.014,5.875-3.853,7.2-6.568a26.673,26.673,0,0,0,2.383-9.262c.087-2.651.1-11.361.1-11.361l-26-.011Z" fill="#915b3c" fill-rule="evenodd"/>
                  <path id="Path-66" data-name="Path" d="M30.425,14.489H12.141A9.7,9.7,0,0,1,8.065,22.4c.079,4.745,1.7,8.2,4.506,10.621,2.444-6.868,17.4-4.989,16.309-.508-2.285,9.414-23.7,9.627-22.4-12.039-.854-1.142-3.91-1.355-4.915-.213C-.153,15.529.58,8.832,5.547,7.864,1.648-2.223,54.67-4.357,30.425,14.489Z" fill="#424242" fill-rule="evenodd"/>
                  <path id="Path-67" data-name="Path" d="M18.816,31.378a5.1,5.1,0,0,0,5.371,1.273" transform="matrix(0.966, -0.259, 0.259, 0.966, -7.586, 6.66)" fill="none" stroke="#cc6969" stroke-linecap="round" stroke-width="1" fill-rule="evenodd"/>
                  <path id="Path-8-3" data-name="Path-8" d="M5.162,23.219c.324-1.164.174-2.183-1.007-2.654" transform="translate(-4.803 1.626) rotate(-13)" fill="none" stroke="#de6767" stroke-linecap="round" stroke-width="1" fill-rule="evenodd"/>
                </g>
              </g>
              <g id="Body-2" data-name="Body" transform="translate(19 43)">
                <path id="Path-68" data-name="Path" d="M21.089,0l15.1,9.8L43,1.887s14.347,4.44,17.008,9.63c3.841,7.49-1.219,67.5.986,71.126C65.7,90.36,59.447,95.658,38.757,97.6s-39.045.352-35.715-9.946S-6.481,10.147,4.852,6.445C8.393,5.288,21.089,0,21.089,0Z" fill="#7367f0" fill-rule="evenodd"/>
                <path id="Path-69" data-name="Path" d="M10.9,18.529q1.372,2.422-1.414,16.779a30.567,30.567,0,0,0,5,23.4l.268.376a37.506,37.506,0,0,1,4.468,8.807c3.344,8.932-4.368,16.378,1.542,30.351l-.715-.034C8.454,97.606.79,94.623,3.042,87.658,5.774,79.214-2.376,32.51.846,13.921Q9.215,15.562,10.9,18.529Z" fill="rgba(0,0,0,0.16)" fill-rule="evenodd"/>
                <path id="Path-70" data-name="Path" d="M21.089,0,34.6,8.8a14.878,14.878,0,0,0-3.443,7.914C25.963,12.656,20.566,6.992,18.894.9Z" fill="#5e54c7" fill-rule="evenodd"/>
                <path id="Path-71" data-name="Path" d="M37.259,8.566c2.284,1.542,4.107,4.273,5.59,7.378,1.778-3.568,2.459-8.28,2.459-13.3l-2.231-.881Z" fill="#5e54c7" fill-rule="evenodd"/>
                <path id="Path-72" data-name="Path" d="M34.6,8.794l.177.1a2.1,2.1,0,0,0,2.485-.327h0a286.388,286.388,0,0,1,9.758,60.01L41.7,77.39l-6.217-8.249C36.295,47.47,36.289,26.339,34.6,8.794Z" fill="#cbc6ff" fill-rule="evenodd"/>
              </g>
              <g id="RArm-2" data-name="RArm" transform="translate(0 50)">
                <g id="Example-Book-Back" transform="translate(67.424 45.741) rotate(6)">
                  <g id="Group-3">
                    <path id="Rectangle-15" data-name="Rectangle" d="M2.564.806l12.427.5a2.464,2.464,0,0,1,2.364,2.462V24.9a2.464,2.464,0,0,1-2.464,2.464l-.1,0-12.427-.5A2.464,2.464,0,0,1,0,24.4V3.268A2.464,2.464,0,0,1,2.464.8Z" fill="#6182ec"/>
                    <path id="Rectangle-16" data-name="Rectangle" d="M4.1.239,17.157,1.4h0L25.9.337A2.464,2.464,0,0,1,28.66,2.783v21.1a2.464,2.464,0,0,1-2.165,2.446l-9.338,1.14h0l-13.5-1.2a2.464,2.464,0,0,1-2.245-2.454V2.694A2.464,2.464,0,0,1,3.877.23Q3.987.23,4.1.239Z" fill="#96effa" fill-rule="evenodd"/>
                    <path id="Rectangle-17" data-name="Rectangle" d="M5.962,5.748l5.986.458a1.6,1.6,0,0,1,1.478,1.6v2.407a1.6,1.6,0,0,1-1.6,1.6q-.061,0-.122,0l-5.986-.458a1.6,1.6,0,0,1-1.478-1.6V7.344a1.6,1.6,0,0,1,1.6-1.6Q5.9,5.744,5.962,5.748Z" fill="#74cfdb"/>
                    <path id="Rectangle-18" data-name="Rectangle" d="M17.052,1.4h.52a.8.8,0,0,1,.8.8V26.582a.8.8,0,0,1-.8.8h-.52a.8.8,0,0,1-.8-.8V2.2A.8.8,0,0,1,17.052,1.4Z" fill="#eaefff"/>
                    <path id="Rectangle-19" data-name="Rectangle" d="M17.759,1.4h.52a.8.8,0,0,1,.8.8V26.582a.8.8,0,0,1-.8.8h-.52a.8.8,0,0,1-.8-.8V2.2A.8.8,0,0,1,17.759,1.4Z" fill="#7ad2dd"/>
                  </g>
                </g>
                <path id="Path-73" data-name="Path" d="M53.89,58.414s4.587-.916,6.464-2.381,7.561-2.5,7.561-2.5L66.1,57.34s13.932-1.3,14.262.066-3.7,2.85-3.7,2.85a36.8,36.8,0,0,1-3.911,5.826c-1.82,2.023-10.864,1.782-14.034.52A11.705,11.705,0,0,0,53,66.057Z" fill="#915b3c" fill-rule="evenodd"/>
                <path id="Path-74" data-name="Path" d="M17,5.239c4.982-10.7,22.041-3.49,17.742,7.969C30.579,24.31,20.489,50.23,20.489,50.23s31.972,4.033,34.465,5.914c3.325,2.509,1.27,9.669-1.557,10.944-2.391,1.078-20.153,1.709-37.532.347C7.268,66.762.91,63.092.023,53.559-.6,46.883,12.2,15.544,17,5.239Z" fill="#877bff" fill-rule="evenodd"/>
                <path id="Path-75" data-name="Path" d="M20.5,50.224q-2.657,5.019-1.9,5.121t4.62-4.754Z" fill="rgba(0,0,0,0.16)" fill-rule="evenodd"/>
                <path id="Path-40-2" data-name="Path-40" d="M52.539,55.593a12.854,12.854,0,0,1-.746,9.421" transform="translate(2.137 -1.794) rotate(2)" fill="none" stroke="#5386bf" stroke-linecap="round" stroke-width="1" fill-rule="evenodd"/>
              </g>
            </g>
            <g id="Vase2" transform="translate(25 297.161)">
              <g id="Group-39" transform="translate(0 0.839)">
                <path id="Rectangle-20" data-name="Rectangle" d="M4.43,56A16.333,16.333,0,0,1,20.815,72.285q0,.052,0,.1l-.022,7.088h0A16.333,16.333,0,0,1,4.407,63.2q0-.052,0-.1L4.43,56Z" transform="translate(-26.462 10.986) rotate(-24)" fill="#02d3af" fill-rule="evenodd"/>
                <path id="Path-76" data-name="Path" d="M12.174,64.3q12.374,8.806,16.064,19.624,3.716,10.87,3.031,36.421a.474.474,0,1,0,.947.026q.7-25.7-3.083-36.759Q25.33,72.488,12.72,63.521a.471.471,0,0,0-.66.115A.48.48,0,0,0,12.174,64.3Z" fill="#02b596" fill-rule="evenodd"/>
                <path id="Rectangle-21" data-name="Rectangle" d="M49.966-51.77A16.2,16.2,0,0,0,66.221-67.919q0-.053,0-.106L66.2-75.683h0A16.2,16.2,0,0,0,49.941-59.534q0,.053,0,.106l.025,7.658Z" transform="translate(137.652 30.517) rotate(-155)" fill="#02d3af" fill-rule="evenodd"/>
                <g id="Group-88" transform="matrix(0.978, -0.208, 0.208, 0.978, 4.884, 39.884)">
                  <path id="Rectangle-22" data-name="Rectangle" d="M.5.618a14.52,14.52,0,0,1,14.52,14.52V21.63h0A14.52,14.52,0,0,1,.5,7.11V.618Z" fill="#02d3af" fill-rule="evenodd"/>
                  <path id="Path-77" data-name="Path" d="M5.085,6.773q7.554,8.078,9.174,15.9l.065.328.063.344q1.524,8.69,1.756,44.146a.474.474,0,1,0,.947-.006l-.021-2.914L17.037,61.2q-.331-31.417-1.851-38.718Q13.5,14.373,5.774,6.118A.471.471,0,0,0,5.1,6.1.48.48,0,0,0,5.085,6.773Z" fill="#02b596" fill-rule="evenodd"/>
                </g>
                <path id="Rectangle-23" data-name="Rectangle" d="M42.767-35.422a15.653,15.653,0,0,0,15.655-15.65v-7.719h0a15.653,15.653,0,0,0-15.655,15.65v7.719Z" transform="matrix(-1, -0.017, 0.017, -1, 102.003, 0.89)" fill="#02d3af" fill-rule="evenodd"/>
                <path id="Path-78" data-name="Path" d="M52.95,38.662A98.211,98.211,0,0,0,40.762,62.293Q36.923,73.665,33.1,97.424a.474.474,0,1,0,.935.153l.313-1.926.215-1.3q3.55-21.25,7.1-31.752A97.269,97.269,0,0,1,53.731,39.2a.48.48,0,0,0-.122-.664A.471.471,0,0,0,52.95,38.662Z" fill="#02b596" fill-rule="evenodd"/>
                <g id="Group-87" transform="translate(33.143 13.912)">
                  <path id="Path-79" data-name="Path" d="M7.762,19.4q-4.51,12.847-6.5,31.772a227.485,227.485,0,0,0-.83,37.85l2.2.2A271.508,271.508,0,0,1,2.867,51.26a168.73,168.73,0,0,1,6-31.756Z" fill="#02b596" fill-rule="evenodd"/>
                  <path id="Oval-6" data-name="Oval" d="M10.073,24.177a7.256,7.256,0,0,0,7.249-7.3C17.314,12.831,11.64,1.906,10.029,1.9S2.787,12.8,2.8,16.843A7.327,7.327,0,0,0,10.073,24.177Z" transform="translate(3.453 -2.046) rotate(14)" fill="#c2fff4" fill-rule="evenodd"/>
                  <path id="Oval-7" data-name="Oval" d="M10.215,20.974a5.118,5.118,0,0,0,5.043-5.217c-.006-2.887-4.258-9.3-5.379-9.3s-4.733,6.4-4.727,9.284A5.168,5.168,0,0,0,10.215,20.974Z" transform="translate(3.62 -2.061) rotate(14)" fill="#02d3af" fill-rule="evenodd"/>
                  <path id="Path-80" data-name="Path" d="M9.583,20.093,13.64,7.429a1.435,1.435,0,0,0-.915-1.8,1.418,1.418,0,0,0-1.788.923L6.879,19.212a1.435,1.435,0,0,0,.915,1.8A1.418,1.418,0,0,0,9.583,20.093Z" fill-rule="evenodd" fill="url(#linear-gradient-8)"/>
                </g>
                <g id="Group-87-2" data-name="Group-87" transform="matrix(-0.995, 0.105, -0.105, -0.995, 24.642, 0.477)">
                  <path id="Path-81" data-name="Path" d="M7.762-19.4q-4.51-12.847-6.5-31.772a227.484,227.484,0,0,1-.83-37.85l2.2-.2A271.508,271.508,0,0,0,2.867-51.26a168.73,168.73,0,0,0,6,31.756Z" fill="#02b596" fill-rule="evenodd"/>
                  <path id="Oval-8" data-name="Oval" d="M10.073-24.177a7.256,7.256,0,0,1,7.249,7.3C17.314-12.831,11.64-1.906,10.029-1.9S2.787-12.8,2.8-16.843A7.327,7.327,0,0,1,10.073-24.177Z" transform="matrix(0.97, -0.242, 0.242, 0.97, 3.453, 2.046)" fill="#c2fff4" fill-rule="evenodd"/>
                  <path id="Oval-9" data-name="Oval" d="M10.215-20.974a5.118,5.118,0,0,1,5.043,5.217c-.006,2.887-4.258,9.3-5.379,9.3s-4.733-6.4-4.727-9.284A5.168,5.168,0,0,1,10.215-20.974Z" transform="matrix(0.97, -0.242, 0.242, 0.97, 3.62, 2.061)" fill="#02d3af" fill-rule="evenodd"/>
                  <path id="Path-82" data-name="Path" d="M9.583-20.093,13.64-7.429a1.435,1.435,0,0,1-.915,1.8,1.418,1.418,0,0,1-1.788-.923L6.879-19.212a1.435,1.435,0,0,1,.915-1.8A1.418,1.418,0,0,1,9.583-20.093Z" fill-rule="evenodd" fill="url(#linear-gradient-9)"/>
                </g>
                <path id="Path-83" data-name="Path" d="M66.019,58.348Q49.178,64.939,42.537,73.6T33.743,100.49a.474.474,0,1,0,.94.114q2.136-17.989,8.6-26.421T66.362,59.239a.479.479,0,0,0,.27-.618A.472.472,0,0,0,66.019,58.348Z" fill="#02b596" fill-rule="evenodd"/>
              </g>
              <g id="Group-38" transform="translate(9 63.839)">
                <path id="Path-151" d="M26.929,30.6Q21.6,11.6.546,17.157q15.762,5.151,23.8,13.438Z" fill="#02b596" fill-rule="evenodd"/>
                <path id="Path-151-2" data-name="Path-151" d="M49.974-27.677q-5.331,19-23.1,16.219,10.792-8.871,20.516-16.219Z" transform="translate(76.849) rotate(180)" fill="#02b596" fill-rule="evenodd"/>
                <path id="Path-151-3" data-name="Path-151" d="M21.193,29.121q1.895-17.411,17.636-26.7-8,18.3-15.391,26.277Z" transform="matrix(0.927, -0.375, 0.375, 0.927, -3.723, 12.391)" fill="#02b596" fill-rule="evenodd"/>
                <path id="Path-114" d="M22.173,27.677A175.916,175.916,0,0,1,16.4,4.837c7.763,3.122,10.256,15.56,7.763,22.84Z" fill="#02d3af" fill-rule="evenodd"/>
                <g id="Group-89" transform="translate(6.357 21.128)">
                  <path id="Rectangle-24" data-name="Rectangle" d="M2.674.443H33.326a2.016,2.016,0,0,1,2.016,2.016q0,.088-.008.176L29.427,70.227a2.016,2.016,0,0,1-2.008,1.84H8.581a2.016,2.016,0,0,1-2.008-1.84L.665,2.634A2.016,2.016,0,0,1,2.5.451Q2.586.443,2.674.443Z" fill="#7569ec"/>
                  <path id="Rectangle-25" data-name="Rectangle" d="M-3.947-4.029H9C.976,26.424,25.123,47.36,9,77.813H-3.947Z" fill="#8175ff" fill-rule="evenodd"/>
                </g>
              </g>
            </g>
            <g id="Chair4-2" data-name="Chair4" transform="translate(571.626 275.91)">
              <path id="Path-25-2" data-name="Path-25" d="M47.12,88.972,35.678,179.379l6-.08L53.12,89.818Z" fill="#91d6ff" fill-rule="evenodd"/>
              <path id="Path-84" data-name="Path" d="M13.821,88.972,2.379,179.379l6-.08L19.821,89.818Z" fill="#91d6ff" fill-rule="evenodd"/>
              <path id="Path-85" data-name="Path" d="M92.312-88.972,80.869-179.379l6,.08L98.311-89.818Z" transform="translate(179.181) rotate(180)" fill="#bfe7ff" fill-rule="evenodd"/>
              <path id="Path-86" data-name="Path" d="M0,93.738a9.445,9.445,0,0,1,9.445-9.445H47.208a11.088,11.088,0,0,0,11.039-10.05L64.285,10.05A11.088,11.088,0,0,1,75.324,0h23.7a11.088,11.088,0,0,1,11.088,11.088q0,.425-.033.849l-6.224,81.007A11.088,11.088,0,0,1,92.8,103.183H9.445A9.445,9.445,0,0,1,0,93.738Z" fill="#91d6ff" fill-rule="evenodd"/>
              <path id="Combined-Shape-2" data-name="Combined-Shape" d="M98.77,0a11.174,11.174,0,0,1,1.691.128,11.044,11.044,0,0,1,.134,1.724q0,.426-.033.852l-6.22,80.718A11.088,11.088,0,0,1,83.288,93.658H0q0-.091,0-.183a9.421,9.421,0,0,1,9.421-9.421h37.65A11.088,11.088,0,0,0,58.11,74.006l6.033-63.959A11.088,11.088,0,0,1,75.182,0Z" fill="#bfe7ff" fill-rule="evenodd"/>
            </g>
            <g id="Wom2.4" transform="translate(685 200) rotate(180)">
              <g id="LLeg-3" data-name="LLeg" transform="translate(36 -133)">
                <path id="Path-87" data-name="Path" d="M65.891-93.415s-5.246-10.6-.945-13.934,15.683-9.6,15.683-9.6l-30.14,1.894,6.7,23.108Z" fill-rule="evenodd" fill="url(#linear-gradient-10)"/>
                <path id="Path-88" data-name="Path" d="M53.475-103c.948-.453-.611-4.71,2.726-4.411s5.431,4.7,7.891,4.413,4.023-4.716,8.708-7.8,11.629-6.769,11.163-9.872-11.394-3.935-16.931-2.907-8.121,3.252-11.713,3.075-5.849.262-6.976,2.569S52.38-102.48,53.475-103Z" fill="#eedfe8" fill-rule="evenodd"/>
                <path id="Path-89" data-name="Path" d="M53.741-117.167l.307.018c4.452.375,7.506-2.424,11.743-3.214s15.414-1.063,17.2,1.588q.127.188.236.385a2.985,2.985,0,0,0,.737-2.445c-.465-2.954-11.4-3.745-16.932-2.767s-8.122,3.1-11.714,2.926l-.638-.024c-3.223-.088-5.28.406-6.338,2.469a5.627,5.627,0,0,0,.059,2.948,9.346,9.346,0,0,1,5.342-1.884Z" fill="#ec7aa5" fill-rule="evenodd"/>
                <path id="Path-90" data-name="Path" d="M20.488-.032C29.613-.439,80.4-11.672,89.625-13.58s17.027-12.234,9.992-24.192c-7.9-13.422-28.292-51.542-33.243-60.135-2.45-4.253-14.811-1.869-11.908,5.27C59.879-79.329,62.393-45.9,76.193-33.709c0,0-46.41-8.077-66.457,1.175C-4.834-25.808-1.537.953,20.488-.032Z" fill="#413c75" fill-rule="evenodd"/>
              </g>
              <g id="LArm-3" data-name="LArm" transform="translate(63.52 -56.32)">
                <path id="Path-91" data-name="Path" d="M56.621-19.754s-.1,5.424,2.494,9.3,2.7,8,4.666,7.867S63.8-12.3,63.8-12.3a25.237,25.237,0,0,1,4.285,2.158c1.792,1.205,7.224,7.146,8.494,6.093,2.152-1.794-1.315-11.913-3.2-13.935S62.132-25.66,62.132-25.66L34.6-53.4,30.48-38.673Z" fill-rule="evenodd" fill="url(#linear-gradient-11)"/>
                <path id="Path-92" data-name="Path" d="M1.547-17.305c4.245-9.845,12.016-27.93,15.22-33.326,4.015-6.757,10.347-9.734,17.76-4.721q1.551,1.049,6.005,4.718a26.458,26.458,0,0,1-7.194,16.105L30.53-36.852S22.564-16.432,16.156-4.6C10.606,5.631-4.914-2.339,1.547-17.305Z" fill="#ea5455" fill-rule="evenodd"/>
                <path id="Path-93" data-name="Path" d="M30.612-36.863q2.139-7.257,2.64-6.837t-.382,8.733Z" fill="rgba(0,0,0,0.16)" fill-rule="evenodd"/>
              </g>
              <g id="Head-3" data-name="Head" transform="translate(35)">
                <path id="Path-94" data-name="Path" d="M11.722-35.411v-8.711l-6.4,5.151S3.359-30.626,1.759-24.427C.757-20.539-1.687-7.384,8.149-8,16.207,6.2,39.673-2.587,39.86-19.94c.225-20.871.041-29,.041-29C26.632-49.7,19.163-47.78,11.722-35.411Z" fill="#422851" fill-rule="evenodd"/>
                <path id="Path-95" data-name="Path" d="M5.187-52s5.951,1.4,6.157,11.148.062,13.079.062,13.079l13.108.237s.143-10.867.145-14.8c.005-9.557,7.034-10.341,7.034-10.341s-1.2-7.885-13.079-8.553C9.34-61.748,5.187-52,5.187-52Z" fill-rule="evenodd" fill="url(#linear-gradient-12)"/>
                <path id="Path-96" data-name="Path" d="M8.35-22.9c-5.847.226-4.894-8.334,1.181-8.322,0,0,3.528-12.16,15.777-12.16,9.948,0,10.6,14.173,10.685,17,.1,3.015.109,12.919.109,12.919l-27.98.013Z" fill-rule="evenodd" fill="url(#linear-gradient-13)"/>
                <path id="Path-97" data-name="Path" d="M7.9-22.845c2.423-.4,2.129-2,2.788-1.864,3.346.711,16.89-.227,18.634,7.221,2.17-4.653,2.7-5.8,7.479-7.046V-10.9L6.576-8S7.046-22.7,7.9-22.845Z" fill="#422851" fill-rule="evenodd"/>
                <path id="Path-98" data-name="Path" d="M23.163-34.24a5.254,5.254,0,0,1,5.94-2.1" transform="translate(-9.664 -9.809) rotate(18)" fill="none" stroke="#57331f" stroke-linecap="round" stroke-width="1.5" fill-rule="evenodd"/>
                <path id="Path-99" data-name="Path" d="M24.867-38.12a2.774,2.774,0,0,1,2.561.058" transform="translate(1.35 0.889) rotate(-2)" fill="none" stroke="#784931" stroke-linecap="round" stroke-width="1" fill-rule="evenodd"/>
                <path id="Path-8-4" data-name="Path-8" d="M8.619-27.649c.367,1.324.2,2.481-1.111,3.01" transform="translate(-5.672 -2.503) rotate(13)" fill="none" stroke="#57331f" stroke-linecap="round" stroke-width="1" fill-rule="evenodd"/>
              </g>
              <g id="Body-3" data-name="Body" transform="translate(20 -50)">
                <path id="Path-100" data-name="Path" d="M21.516-1c7.468-4.574,16.1-6.251,24.139-1.284C58.77-28.145,62.039-59,58.884-93.106c-19.125-7.572-35.2-6.083-48.884,2.572Z" fill="#ffe4f4" fill-rule="evenodd"/>
                <g id="RLeg-2" data-name="RLeg" transform="translate(2 -79)">
                  <path id="Path-101" data-name="Path" d="M112.585-97.84s-.158-12.471,10.118-17.133,17.586-4.381,16.655-7.986-27.661-3.458-30.157-.64c-2.128,2.4-6.754,24.727-8.028,23.02Z" fill-rule="evenodd" fill="url(#linear-gradient-14)"/>
                  <path id="Path-102" data-name="Path" d="M105.121-115.452c1.575,1.133,2.9-5.4,7.176-3.584s.9,7.823,3.6,8.93,7.89-4.848,14.794-6.3,12.509-2.713,14.1-5.4c1.372-2.31,0-3.048,0-3.048s-6.646-3.319-10.776-4.049c-6-1.061-23.339-1.768-25.239.167C107.608-127.545,104.333-116.019,105.121-115.452Z" fill="#eedfe8" fill-rule="evenodd"/>
                  <path id="Path-103" data-name="Path" d="M145.165-122.073a2.238,2.238,0,0,0-1-3.349l-.99-.422a55.64,55.64,0,0,0-9.257-3.057c-5.748-1.1-23.548-1.75-25.462.14a9.347,9.347,0,0,0-1.154,3.121l1.222-.133c5.878-.622,19-1.749,25.474-.224,5.747,1.354,8.894,3.581,10.329,4.882A4.084,4.084,0,0,0,145.165-122.073Z" fill="#ec7aa5" fill-rule="evenodd"/>
                  <path id="Path-104" data-name="Path" d="M5.9-.176Q-7.368-28.192,11.275-37.812c18.029-9.3,72,1.7,72,1.7a65.494,65.494,0,0,1,0-14.69c2.519-18.087,14.5-48.221,17.033-52.007,3.505-5.236,14.182-1.287,14.383,3.073s-8.049,60.044-9.3,70.662S100.2-16.913,88.691-14.01C86.047-13.343,54.78-5.573,51.916-5.8A110.461,110.461,0,0,0,5.9-.176Z" fill="#524d87" fill-rule="evenodd"/>
                  <path id="Path-105" data-name="Path" d="M20.44-34.921c17.849-2,65.1,2.123,67,.249,1.812-1.788,1.51-32.9,5.574-50.914l-.618,1.7c-3.823,10.617-7.792,23.53-9.122,33.082a65.494,65.494,0,0,0,0,14.69L81.1-36.533C70.84-38.46,27.14-46,11.275-37.812Q-1.62-31.158.751-15.7,4.834-33.171,20.44-34.921Z" fill="rgba(255,255,255,0.05)" fill-rule="evenodd"/>
                </g>
                <path id="Path-106" data-name="Path" d="M21.843-1.021C34.211-41.537,41.628-98.979,3-88.986,23.52-51.206-4.376-34.2,1.947-14.676,4.109-8,21.681-.5,21.843-1.021Z" fill="#ea5455" fill-rule="evenodd"/>
                <path id="Path-107" data-name="Path" d="M7.892-17.845c13.979-2.11,2.456-26.517,7.07-30.194s12.646-4.074,13.512-6.32q2.611-6.772-25.242-34.191L3-88.986c17.875,32.91-.988,50.055-1.969,66.835Q4.137-17.278,7.892-17.845Z" fill="rgba(0,0,0,0.16)" fill-rule="evenodd"/>
                <path id="Path-108" data-name="Path" d="M45-2c4.72-11.838,6.989-21.127,9.106-38.5q1.765-14.472.882-44.336l5.833-1.147q4.17,46.139,2.776,52.08A234.211,234.211,0,0,1,56.582-9C54.88-4,45-2,45-2Z" fill="#ea5455" fill-rule="evenodd"/>
              </g>
              <g id="RArm-3" data-name="RArm" transform="translate(0 -59.9)">
                <path id="Path-109" data-name="Path" d="M44.44-37.117s7.616,7.625,10.253,8.51,17.084,1.948,16.987-.052c-.111-2.142-9.407-2.019-10.267-3.073s-2.055-9.257-5.3-10.065S46.143-45,46.143-45L16.218-60.462,19.406-45Z" fill-rule="evenodd" fill="url(#linear-gradient-15)"/>
                <path id="Path-110" data-name="Path" d="M21.519-4.831C12.442-17.642,4.692-37.156,1.718-44.764s.026-19.083,13.107-16.83a22.507,22.507,0,0,1,4.091,1.254c4.81,6.593,5.653,12.253,3.858,17.293l-1.692-.714s13,23.044,16.175,29.222C42.56-4.222,29.514,6.456,21.519-4.831Z" fill="#ea5455" fill-rule="evenodd"/>
                <path id="Path-111" data-name="Path" d="M21.082-43.761q-6.6-3.225-5.773-1.807T23.6-39.282Z" fill="rgba(0,0,0,0.16)" fill-rule="evenodd"/>
              </g>
            </g>
            <g id="Group-3-2" data-name="Group-3" transform="translate(525.371 258.654) rotate(-14)">
              <path id="Rectangle-26" data-name="Rectangle" d="M2.464,0H26.652a2.464,2.464,0,0,1,2.464,2.464V37.69a2.464,2.464,0,0,1-2.464,2.464H2.464A2.464,2.464,0,0,1,0,37.69V2.464A2.464,2.464,0,0,1,2.464,0Z" fill-rule="evenodd" fill="url(#linear-gradient-16)"/>
              <path id="Rectangle-27" data-name="Rectangle" d="M3.219.756H27.407A2.464,2.464,0,0,1,29.871,3.22V38.446a2.464,2.464,0,0,1-2.464,2.464H3.219A2.464,2.464,0,0,1,.755,38.446V3.22A2.464,2.464,0,0,1,3.219.756Z" fill="#518df8" fill-rule="evenodd"/>
              <path id="Rectangle-28" data-name="Rectangle" d="M3.871,1.536H26.619a2.218,2.218,0,0,1,2.218,2.218V35.6a2.218,2.218,0,0,1-2.218,2.218H3.871A2.218,2.218,0,0,1,1.653,35.6V3.754A2.218,2.218,0,0,1,3.871,1.536Z" fill="#fff"/>
            </g>
            <g id="Group-26-10" data-name="Group-26" transform="translate(198.805 310.871)">
              <g id="Group-25" transform="translate(11.57)">
                <path id="Rectangle-29" data-name="Rectangle" d="M112.829,0h11.417V144.879H112.829Z" fill="#e9e9e9" fill-rule="evenodd"/>
                <path id="Rectangle-30" data-name="Rectangle" d="M1,4.762H91.189V31.671H16.028V144.879H1Z" fill="#d3d3d3" fill-rule="evenodd"/>
                <path id="Rectangle-31" data-name="Rectangle" d="M.417,4.762h8V144.879h-8Z" fill="#dbdbdb" fill-rule="evenodd"/>
              </g>
              <g id="Group-25-2" data-name="Group-25">
                <path id="Rectangle-32" data-name="Rectangle" d="M404.625,4.762h16V144.879h-16Z" fill="#e9e9e9" fill-rule="evenodd"/>
                <path id="Rectangle-33" data-name="Rectangle" d="M404.625,0h10V144.879h-10Z" fill="#dbdbdb" fill-rule="evenodd"/>
                <path id="Rectangle-34" data-name="Rectangle" d="M272.2,4.762h139V31.319H290.909V144.879H272.2Z" fill="#d3d3d3" fill-rule="evenodd"/>
                <path id="Rectangle-35" data-name="Rectangle" d="M23.785,0h248.89V40.23H23.785Z" fill="#dbdbdb" fill-rule="evenodd"/>
                <path id="Rectangle-36" data-name="Rectangle" d="M266.966,4.762h11.417V40.23H266.966Z" fill="#e9e9e9" fill-rule="evenodd"/>
                <path id="Rectangle-37" data-name="Rectangle" d="M272.237,4.762h9V144.879h-9Z" fill="#dbdbdb" fill-rule="evenodd"/>
                <path id="Rectangle-38" data-name="Rectangle" d="M280.815,0H425.94a7.143,7.143,0,1,1,0,14.287H280.815a7.143,7.143,0,1,1,0-14.287Z" fill="#e9e9e9" fill-rule="evenodd"/>
                <path id="Rectangle-39" data-name="Rectangle" d="M20.931,2.857H269.82V17.144H20.931Z" fill="#e9e9e9" fill-rule="evenodd"/>
                <path id="Rectangle-40" data-name="Rectangle" d="M7.143,0H283.608a7.143,7.143,0,1,1,0,14.287H7.143A7.143,7.143,0,1,1,7.143,0Z" fill="#dbdbdb" fill-rule="evenodd"/>
              </g>
            </g>
            <g id="Men2.8" transform="translate(347.596 203.153) rotate(180)">
              <g id="RLeg-3" data-name="RLeg" transform="translate(144.474 -136.728) rotate(-180)">
                <path id="Path-112" data-name="Path" d="M45.729-80.3l7.9-25.643-16.567-.6s1.871,8.772-.8,16.994a68.127,68.127,0,0,1-3.891,9.9Z" transform="translate(85.995) rotate(180)" fill="#92691f" fill-rule="evenodd"/>
                <path id="Path-113" data-name="Path" d="M48.5,99.5a37,37,0,0,0,12.4,8.032c6.081,2.171,8.408,2.2,8.842,3.012l.079.156c1.25,2.582.492,6.012-13.369,6.2-3.369.046-6.872-1.911-16.171-3.982l-.671,3.62q-7.806-.1-9.109-2.461c-1.31-2.351.916-13.946,2.452-14.165s1.839,4.5,5.962,4.6S48.5,99.5,48.5,99.5Z" fill="#391b0b" fill-rule="evenodd"/>
                <path id="Combined-Shape-3" data-name="Combined-Shape" d="M48.5,99.5A37.447,37.447,0,0,0,60.566,107.4a4.781,4.781,0,0,1-4.621.915q-3.6-.823-9.225-7.7l.185.221C47.883,100.076,48.5,99.5,48.5,99.5Z" fill="#81411e" fill-rule="evenodd"/>
                <path id="Path-114-2" data-name="Path" d="M2.509.032Q68.3,5.292,77.367,5.573c9.065.28,15.991,13.219,8.971,25.162-7.884,13.407-29.305,52-33.493,60.928C49.3,99.208,33.205,96.117,36.1,84.592c3.458-13.794,9.9-44.74,23.673-56.915,0,0-33.487,12.141-52.349.366Q-3.335,21.325,2.509.032Z" fill="#7a3636" fill-rule="evenodd"/>
                <path id="Path-115" data-name="Path" d="M86.338,30.736l-1.025,1.759c-3.991,6.9-10.433,18.547-16.585,29.894l.324-1.04C73.809,46.21,81.2,28.377,84.36,22.936A30.892,30.892,0,0,1,88.885,17.1,19.443,19.443,0,0,1,86.338,30.736Z" fill="rgba(255,255,255,0.19)" fill-rule="evenodd"/>
              </g>
              <g id="LLeg-4" data-name="LLeg" transform="translate(136.521 -138.9) rotate(-180)">
                <path id="Path-116" data-name="Path" d="M102.65-78.427s-4.4-19.559-10.123-21.651c-2.2-.806,16.892-3.107,16.892-3.107l4.794,18.764Z" transform="translate(206.562) rotate(180)" fill="#92691f" fill-rule="evenodd"/>
                <path id="Path-117" data-name="Path" d="M94.385,96.578l-.319,16.511,6.582.05.068-3.712a52.214,52.214,0,0,0,8.6,4.158c4.673,1.459,23.131.695,25.216-1.528s2.131-5.786-2.151-6.222-11.361-1.737-14.409-4.069c-3.686-2.812-5.089-7.271-6.16-7.275-1.64-.006-1.766,5.241-10.086,5.315C98.562,99.833,94.385,96.578,94.385,96.578Z" fill="#391b0b" fill-rule="evenodd"/>
                <path id="Path-118" data-name="Path" d="M110.111,95.962s4.245,6.624,6.769,7.583a5.946,5.946,0,0,0,4.558-.116s-4.351-1.734-6.032-4.76C111.6,91.814,110.836,95.3,110.111,95.962Z" fill="#81411e" fill-rule="evenodd"/>
                <path id="Path-119" data-name="Path" d="M0,3.174Q-.092,24.2,14.031,29.479c14.124,5.283,60.113,3.295,60.113,3.295S88.739,86.472,92.236,91.7s20.079,5.771,19.182-6.275-7.375-56.768-8.626-67.374S97.615,4.907,86.133,3.007C82.1,2.339,83.81,1.269,57.866.054c-5.572-.261-14.921,1.825-23.512,2.77Q25.762,3.769,0,3.174Z" fill="#7a3636" fill-rule="evenodd"/>
                <path id="Path-120" data-name="Path" d="M45.9,3.628V1.187l1.15-.173A61.825,61.825,0,0,1,57.866.054L60.849.2c22.833,1.155,21.41,2.167,25.284,2.808l.746.126C97.542,4.98,101.4,7.561,102.706,17.366l.365,2.951c1.729,13.592,7.5,53.788,8.347,65.111a11.111,11.111,0,0,1-.081,2.509l-3.362-16.927q-7.43-37.644-8.328-44.611l-.125-.965c-1.119-8.243-4.047-18.471-13.5-17.8L85.21,7.7q-9.978.759-37.848-3.828Z" fill="rgba(255,255,255,0.19)" fill-rule="evenodd"/>
                <ellipse id="Oval-10" data-name="Oval" cx="3.776" cy="6.614" rx="3.776" ry="6.614" transform="translate(111.054 12.565) rotate(13)" fill="rgba(255,255,255,0.19)"/>
              </g>
              <g id="RArm-4" data-name="RArm" transform="translate(104.43 -51.024)">
                <path id="Path-121" data-name="Path" d="M16.292-60.938S4.534-71.489,5.345-72.638,12.2-70.713,12.2-70.713,5.131-83.844,6.767-84.745s9.645,1.485,12,4.236S24.344-65.4,24.344-65.4Z" transform="translate(37.054 -1.906) rotate(-28.866)" fill-rule="evenodd" fill="url(#linear-gradient-17)"/>
                <path id="Path-122" data-name="Path" d="M21.763-17.539C26.919-23.9,44.5-43.335,44.5-43.335s-17.578-12.52-22-15.168c-7.259-4.341.123-15.856,5.446-14.577,7.213,1.738,25.421,14.3,33.977,19.382s5.282,13.291-1.048,20.78C56-27.165,45.434-15.38,38-5.033,30.6,5.261,11.76-5.192,21.763-17.539Z" fill="#ea5455" fill-rule="evenodd"/>
                <path id="Path-15-2" data-name="Path-15" d="M44.5-43.335q4.949-4.768,4.434-5.137T42.453-44.8Z" fill="rgba(0,0,0,0.16)" fill-rule="evenodd"/>
              </g>
              <g id="Head-4" data-name="Head" transform="translate(91.919)">
                <path id="Path-123" data-name="Path" d="M3.583-21.854c-4.323-.473-4.016-8.082,1.246-8.479C5.9-37.668,9.74-41.162,14.417-41.566L14.157-52.66l20.685.012a32.44,32.44,0,0,0-5.535,18.566c.29,10.729-.195,20.809-.195,20.809L2.321-13.755Z" fill-rule="evenodd" fill="url(#linear-gradient-18)"/>
                <path id="Path-124" data-name="Path" d="M12.045-1.16C-3.892-5.183,2.683-22.175,2.683-22.175c4.815.657,9.449-5.185,11.206-10.916,5.081-5.222,11.662-5.214,16.038-2.171q6.021,18.623,4.051,24.824C32.009-4.238,26.571,2.506,12.045-1.16Z" fill="#2c272e" fill-rule="evenodd"/>
              </g>
              <g id="Body-4" data-name="Body" transform="translate(80.216 -46.62)">
                <path id="Path-125" data-name="Path" d="M61.422-8.514c1.431-2.436,2.456-12.248,0-51.12-1.272-20.129,4.138-39.968,2.74-48.7q-1.4-8.733-11.006-9.776l-5.6,18.229-2.636-18.229Q5.184-114.4,1.7-105.351c-3.489,9.065.892,30.375,1.935,50.442C4.683-34.763,3.9-14.084,5.823-10.95,9.666-4.694,19.558-1.772,25.7-.837,33.489.351,43.546.4,49.525-1.5S59.992-6.078,61.422-8.514Z" fill="#ea5455" fill-rule="evenodd"/>
                <path id="Path-126" data-name="Path" d="M20.993-22.357q-4.7-34.7-12.579-48.7Q5.158-76.844,1.8-75.828L2.33-70.7c.53,5.188,1.033,10.533,1.306,15.792.191,3.668.32,7.353.417,10.947Z" fill="rgba(0,0,0,0.16)" fill-rule="evenodd"/>
                <path id="Path-127" data-name="Path" d="M49.525-1.5q.544-.172,1.052-.358C41.993-5.6,27.818-5.1,20.112-2.051A46.786,46.786,0,0,0,25.7-.837C33.489.351,43.546.4,49.525-1.5Z" fill="#e5aa41" fill-rule="evenodd"/>
              </g>
              <g id="LArm-4" data-name="LArm" transform="translate(5 -53.237)">
                <path id="Path-128" data-name="Path" d="M19.442-35.778S6.657-27.243,4.4-25.529-.681-10.878,1.071-9.062c.846.879,7.242-5.034,8.383-5.825s6.933-4.278,6.933-4.278S14.746-9.259,16.159-8.46c1.045.581,3.135-1.968,3.415-4.663s3.187-6.21,3.562-10.3a21.052,21.052,0,0,1,1.928-5.2Z" fill-rule="evenodd" fill="url(#linear-gradient-19)"/>
                <path id="Path-129" data-name="Path" d="M95.582-19.411c-4.9-10.18-13.219-25.062-17.789-33.788-5.408-10.326-11.851-14.7-24.849-7.039C42.059-53.821,26.363-43.5,18.253-37.891c-7.547,5.22,1.374,18.105,8.5,13.752,9.459-5.768,33.646-17.2,33.646-17.2S72.85-18.6,78.018-7.685C84.592,6.189,105.063.289,95.582-19.411Z" fill="#ea5455" fill-rule="evenodd"/>
                <path id="Path-130" data-name="Path" d="M60.4-41.338q-2.276-8.016-2.813-7.7t.377,8.849Z" fill="rgba(0,0,0,0.16)" fill-rule="evenodd"/>
              </g>
            </g>
            <g id="Chair8" transform="translate(283.751 277.8) rotate(180)">
              <path id="Path-131" data-name="Path" d="M57.427,98.421,45.984,179.379l6-.08L63.427,99.267Z" transform="translate(109.411) rotate(180)" fill="#bfe7ff" fill-rule="evenodd"/>
              <path id="Path-132" data-name="Path" d="M13.821-98.421,2.379-179.379l6,.08L19.821-99.267Z" fill="#91d6ff" fill-rule="evenodd"/>
              <path id="Path-133" data-name="Path" d="M92.312,98.421,80.869,179.379l6-.08L98.311,99.267Z" transform="translate(179.181) rotate(180)" fill="#bfe7ff" fill-rule="evenodd"/>
              <path id="Path-134" data-name="Path" d="M0-93.738a9.445,9.445,0,0,0,9.445,9.445H47.208a11.088,11.088,0,0,1,11.039,10.05L64.285-10.05A11.088,11.088,0,0,0,75.324,0h23.7a11.088,11.088,0,0,0,11.088-11.088q0-.425-.033-.849l-6.224-81.007A11.088,11.088,0,0,0,92.8-103.183H9.445A9.445,9.445,0,0,0,0-93.738Z" fill="#bfe7ff" fill-rule="evenodd"/>
              <path id="Combined-Shape-4" data-name="Combined-Shape" d="M69.5-1.563,63.2-83.422A11.088,11.088,0,0,0,52.141-93.658H.158l-.156,0q0,.091,0,.182a9.421,9.421,0,0,0,9.421,9.421h37.65A11.088,11.088,0,0,1,58.11-74.006l6.033,63.959A11.081,11.081,0,0,0,69.5-1.563Z" fill="#91d6ff" fill-rule="evenodd"/>
            </g>
            <g id="Front-Laptop3" transform="translate(504.612 269.296) rotate(180)">
              <path id="Rectangle-41" data-name="Rectangle" d="M7.377-39.5H91.514a.746.746,0,0,0,.746-.746v-1.1a.746.746,0,0,0-.746-.746H7.377a.746.746,0,0,0-.746.746v1.1A.746.746,0,0,0,7.377-39.5Z" fill-rule="evenodd" fill="url(#linear-gradient-20)"/>
              <path id="Rectangle-42" data-name="Rectangle" d="M7.37-39.5H39.7a.746.746,0,0,0,.746-.746v-1.1a.746.746,0,0,0-.746-.746H7.37a.746.746,0,0,0-.746.746v1.1A.746.746,0,0,0,7.37-39.5Z" fill="#518df8" fill-rule="evenodd"/>
              <path id="Rectangle-43" data-name="Rectangle" d="M4.09,0H59.9a3.6,3.6,0,0,0,3.571-3.143l4.151-32.413a3.6,3.6,0,0,0-3.114-4.028,3.6,3.6,0,0,0-.457-.029H8.241A3.6,3.6,0,0,0,4.671-36.47L.52-4.057A3.6,3.6,0,0,0,3.633-.029,3.6,3.6,0,0,0,4.09,0Z" fill="#518df8" fill-rule="evenodd"/>
              <path id="Rectangle-44" data-name="Rectangle" d="M5.789,0H60.421a3.6,3.6,0,0,0,3.571-3.143l4.151-32.413a3.6,3.6,0,0,0-3.114-4.028,3.6,3.6,0,0,0-.457-.029H9.94A3.6,3.6,0,0,0,6.369-36.47L2.219-4.057A3.6,3.6,0,0,0,5.332-.029,3.6,3.6,0,0,0,5.789,0Z" fill-rule="evenodd" fill="url(#linear-gradient-20)"/>
              <path id="Rectangle-45" data-name="Rectangle" d="M7.381-1.874H59.14A3.24,3.24,0,0,0,62.353-4.7l3.74-29.237a3.24,3.24,0,0,0-2.8-3.625,3.24,3.24,0,0,0-.411-.026H11.121a3.24,3.24,0,0,0-3.214,2.829L4.167-5.525A3.24,3.24,0,0,0,6.97-1.9,3.24,3.24,0,0,0,7.381-1.874Z" fill="#fff"/>
            </g>
            <g id="Wom3.8" transform="translate(483 209) rotate(180)">
              <g id="RArm-5" data-name="RArm" transform="translate(100 -54)">
                <path id="Path-135" data-name="Path" d="M18.767-58.869S8.387-68.213,9.109-69.238s6.06,1.692,6.06,1.692S8.952-79.2,10.4-80s8.534,1.293,10.61,3.731,4.9,13.411,4.9,13.411L39.339-42.1,28.325-37.2Z" transform="translate(31.341 4.394) rotate(-28.866)" fill-rule="evenodd" fill="url(#linear-gradient-22)"/>
                <path id="Path-136" data-name="Path" d="M19.233-15.617c4.556-5.665,20.089-22.97,20.089-22.97l-3.066-2.3,9.973-12.1q6.368,3.9,8.487,5.17c7.561,4.527,4.668,11.835-.926,18.5-4.3,5.123-13.638,15.617-20.211,24.829C27.039,4.684,10.392-4.624,19.233-15.617Z" fill="#ffb66f" fill-rule="evenodd"/>
                <path id="Path-15-3" data-name="Path-15" d="M39.322-38.588q4.373-4.246,3.919-4.575t-5.724,3.269Z" fill="rgba(0,0,0,0.16)" fill-rule="evenodd"/>
                <path id="Path-76-2" data-name="Path-76" d="M36.873-39.623l13-12.868-6.5-4.253L34.444-41.459Z" fill="#ffedc2" fill-rule="evenodd"/>
              </g>
              <g id="LLeg-5" data-name="LLeg" transform="translate(140 -132) rotate(-180)">
                <path id="Path-137" data-name="Path" d="M46.567-77.233,53.6-99.882l-11.818-.531s1.666,7.747-.712,15.01a59.9,59.9,0,0,1-3.464,8.74Z" transform="translate(91.201) rotate(180)" fill-rule="evenodd" fill="url(#linear-gradient-23)"/>
                <path id="Path-138" data-name="Path" d="M50.184,93.838s-.649,5.735,1.233,7.694,12.066,9.413,12.864,10.827-.627,2.974-.627,2.974-11,.945-15.943-2.046c-3.572-2.161-6.11-3.9-6.11-3.9l-1.341,2.843-5.879-1.269s-1.507-4.765-.559-7.017S39.581,91.2,39.581,91.2Z" transform="translate(-7.089 3.671) rotate(-4)" fill="#391b0b" fill-rule="evenodd"/>
                <path id="Path-139" data-name="Path" d="M10.248.031c8.889.867,52.673,11.3,61.688,13.148S88.573,25.051,81.7,36.654q-7.721,13.025-29.549,53.5a1.772,1.772,0,0,1-.4.091c-4.44,0-8.4-.608-12.209-3.264Q45.328,44.54,58.812,32.712s-34.818,12.52-52.23-1.14C-3.69,23.513.452-.925,10.248.031Z" fill="#33373e" fill-rule="evenodd"/>
                <path id="Combined-Shape-5" data-name="Combined-Shape" d="M81.7,36.654c-1.4,2.355-3.19,5.492-5.222,9.1L78.81,16.442C84.055,20.685,86.674,28.255,81.7,36.654Z" fill="rgba(255,255,255,0.19)" fill-rule="evenodd"/>
              </g>
              <g id="RLeg-4" data-name="RLeg" transform="translate(128 -129) rotate(-180)">
                <path id="Path-140" data-name="Path" d="M99.915-78.444s-3.877-17.27-8.922-19.117c-1.943-.712,11.986-2.743,11.986-2.743L107.2-83.737Z" transform="translate(198.01) rotate(180)" fill-rule="evenodd" fill="url(#linear-gradient-24)"/>
                <path id="Path-141" data-name="Path" d="M94.807,92.988l.251,21.931,6.455,0,.058-5.4s2.034,5.037,5.146,5.327,18.94.408,18.94.408,1.158-5.06-5.764-7.354c-5.757-1.907-14.029-14.914-14.029-14.914Z" transform="translate(-14.93 18.532) rotate(-9)" fill="#391b0b" fill-rule="evenodd"/>
                <path id="Path-142" data-name="Path" d="M5.705.171q-12.832,27.178,5.2,36.511c17.439,9.025,63.843-2.619,63.843-2.619a63.721,63.721,0,0,0,0,14.251c2.437,17.547,14.419,39.135,15.509,42.693.549,1.792,13.913-.856,13.913-2.981s-6.818-50.489-8.032-60.79-5.019-11.8-16.151-14.614c-2.558-.647-35.7-8.185-38.475-7.965Q17.706,6.544,5.705.171Z" fill="#42474f" fill-rule="evenodd"/>
                <path id="Path-143" data-name="Path" d="M41.513,4.656c2.771-.22,35.917,7.318,38.475,7.965l1.828.469c9.5,2.484,13.015,4.338,14.237,13.456l.329,2.618c1,7.64,3.71,25.6,5.853,40.56a105.917,105.917,0,0,1-6-18.3c-3.692-15.619-2.9-28.444-3.893-30.69S42.859,11.32,34.527,9.84q-5.44-.966-6.137-4.792A122.888,122.888,0,0,0,41.513,4.656Z" fill="rgba(255,255,255,0.19)" fill-rule="evenodd"/>
              </g>
              <g id="Head-5" data-name="Head" transform="translate(90 -3)">
                <path id="Path-144" data-name="Path" d="M2.8-21.877c-3.852-.422-3.579-7.2,1.11-7.556.958-6.536,4.376-9.65,8.543-10.011l-.231-9.886,18.432.011A28.912,28.912,0,0,0,25.72-32.775c.259,9.562-.174,18.544-.174,18.544L1.673-14.66Z" fill-rule="evenodd" fill="url(#linear-gradient-25)"/>
                <path id="Path-145" data-name="Path" d="M31.068,22.385c-4.486-1.776-7.8,5.872-11.233,11.187s-12.327,4.412-13.552,0c-4.641-9.664-8.64-22.8-3.224-23.882C3.82-4.277,40.334-.979,31.068,22.385Z" transform="translate(33.027) rotate(180)" fill="#9e5229" fill-rule="evenodd"/>
                <path id="Combined-Shape-6" data-name="Combined-Shape" d="M27.288-4.4a7.3,7.3,0,0,0,2.681-5.286c5.416-1.078,1.416-14.217-3.224-23.882-1.14-4.1-8.909-5.172-12.753-1.029-3.507,10.515-2.01,22.273,5.079,30.2h8.218Z" fill="rgba(0,0,0,0.2)" fill-rule="evenodd"/>
                <ellipse id="Oval-11" data-name="Oval" cx="4.401" cy="4.406" rx="4.401" ry="4.406" transform="translate(17.732 -8.812)" fill="#fb9934"/>
              </g>
              <g id="Body-5" data-name="Body" transform="translate(77 -49)">
                <path id="Path-146" data-name="Path" d="M47.38,5c4.081,5.986,10.881,26.3,11.267,30.872.435,5.272-5.225,13.67-5.318,21.3s4.222,26.739,2.928,28.886S12.36,100.621,9.96,99.6-.728,87.581,1.166,83.11s9.77-14.611,8.87-20.7S3.978,33.836,1.412,26.184-.292,10.5,4.478,7.206A32.349,32.349,0,0,1,24.353.969C35.569.991,47.063,4.537,47.38,5Z" transform="translate(58.67) rotate(180)" fill="#ff9f43" fill-rule="evenodd"/>
                <path id="Path-147" data-name="Path" d="M2.143-30.966,21.7-16.916l-.006-2.568c-.072-15.847-1.07-24.241-17.667-50.212l.384,2.647a75.021,75.021,0,0,1,.934,9.873c-.059,4.815-2.333,9.935-3.9,14.383Z" fill="rgba(0,0,0,0.16)" fill-rule="evenodd"/>
                <path id="Path-68-2" data-name="Path-68" d="M23.955-.532q-.472-2.574,1.594-2.574c2.066,0,15.926-.456,17.8.358q1.877.814,1.314,2.216Z" fill="#fff6e1" fill-rule="evenodd"/>
              </g>
              <g id="LArm-5" data-name="LArm" transform="translate(15 -53)">
                <path id="Path-148" data-name="Path" d="M16.876-31.861S5.589-24.328,3.594-22.815-.889-9.885.658-8.283c.747.776,6.394-4.442,7.4-5.141S14.179-17.2,14.179-17.2s-1.449,8.744-.2,9.449c.923.513,2.768-1.737,3.015-4.116s2.813-5.481,3.145-9.09a24.535,24.535,0,0,1,.733-3.62L52.186-38.025,48.91-52.648Z" fill-rule="evenodd" fill="url(#linear-gradient-26)"/>
                <path id="Path-149" data-name="Path" d="M84.093-17.416c-4.325-8.984-11.67-22.118-15.7-29.82-4.774-9.113-10.463-12.974-21.937-6.212q-1.343.791-4.248,2.555l7.1,15.772,3.729-1.648S64.025-16.7,68.587-7.067C74.391,5.178,92.463-.03,84.093-17.416Z" fill="#ffb66f" fill-rule="evenodd"/>
                <path id="Path-150" data-name="Path" d="M53.036-36.768q-2.009-7.075-2.483-6.8t.333,7.809Z" fill="rgba(0,0,0,0.16)" fill-rule="evenodd"/>
                <path id="Path-75-2" data-name="Path-75" d="M49.408-34.423,44.461-54.058,37.1-50.077l9.66,17.183Z" fill="#ffedc2" fill-rule="evenodd"/>
              </g>
              <path id="Path-151-4" data-name="Path" d="M125.339,4.15S121.191-1.16,116.4.233s-9.124,9.932-7.066,17.958.359,12.606-2.125,18.016C100.538,50.76,123.636,60,123.636,60q-1.8-10.783,1.7-17.295C128.95,36,131,27.4,131,22.137,131,12.986,125.339,4.15,125.339,4.15Z" transform="translate(237) rotate(180)" fill="#9e5229" fill-rule="evenodd"/>
            </g>
            <g id="Chair8-2" data-name="Chair8" transform="translate(417.778 277.8) rotate(180)">
              <path id="Path-152" data-name="Path" d="M47.12-98.421,35.678-179.379l6,.08L53.12-99.267Z" fill="#91d6ff" fill-rule="evenodd"/>
              <path id="Path-153" data-name="Path" d="M13.821-98.421,2.379-179.379l6,.08L19.821-99.267Z" fill="#91d6ff" fill-rule="evenodd"/>
              <path id="Path-154" data-name="Path" d="M92.312,98.421,80.869,179.379l6-.08L98.311,99.267Z" transform="translate(179.181) rotate(180)" fill="#bfe7ff" fill-rule="evenodd"/>
              <path id="Path-155" data-name="Path" d="M0-93.738a9.445,9.445,0,0,0,9.445,9.445H47.208a11.088,11.088,0,0,1,11.039,10.05L64.285-10.05A11.088,11.088,0,0,0,75.324,0h23.7a11.088,11.088,0,0,0,11.088-11.088q0-.425-.033-.849l-6.224-81.007A11.088,11.088,0,0,0,92.8-103.183H9.445A9.445,9.445,0,0,0,0-93.738Z" fill="#bfe7ff" fill-rule="evenodd"/>
              <path id="Combined-Shape-7" data-name="Combined-Shape" d="M69.5-1.563,63.2-83.422A11.088,11.088,0,0,0,52.141-93.658H.158l-.156,0q0,.091,0,.182a9.421,9.421,0,0,0,9.421,9.421h37.65A11.088,11.088,0,0,1,58.11-74.006l6.033,63.959A11.081,11.081,0,0,0,69.5-1.563Z" fill="#91d6ff" fill-rule="evenodd"/>
            </g>
          </g>
        </g>
      </g>
    </g>
  </g>
</svg>
