<svg xmlns="http://www.w3.org/2000/svg" xmlns:xlink="http://www.w3.org/1999/xlink" width="1200" height="1200" viewBox="0 0 1200 1200">
  <defs>
    <linearGradient id="linear-gradient" x1="0.87" y1="-0.26" x2="0.5" y2="1" gradientUnits="objectBoundingBox">
      <stop offset="0" stop-color="#8681f3"/>
      <stop offset="1" stop-color="#000000"/>
    </linearGradient>
  </defs>
  <g id="g10" transform="translate(0 2666.66)">
    <g id="g12" transform="translate(0 -2666.66)">
      <path id="path14" d="M1200-1466.66H0v-1200H1200v1200" transform="translate(0 2666.66)" fill="#fff"/>
      <path id="path18" d="M872.079-1538.783c27.976-25.76,54.892-50.533,82.766-76.2,3.2,4.413,5.805,7.76,8.169,11.28,25.981,38.627,62.689,54.88,107.75,46.067,42.136-8.24,69.513-35.307,80.86-77.24,1.851-6.84,2.175-14.24,2.224-21.387.225-32.267-.373-64.533.217-96.773.715-38.973,5.017-77.506,19.217-114.24,42.165-109.106,119.606-178.84,234.193-203.373,98.733-21.146,188.76,1.987,266.706,65.96,61.506,50.493,99.04,115.986,110.533,195.319,13.427,92.733-8.08,176.533-67.426,249.386-47.187,57.946-107.946,94.693-181.386,109.866-69.16,14.307-135.693,5.787-199.693-23.52-29.389-13.453-60.245-34.96-77.346-53.707,22.236-36.253,34.5-76.573,38.141-120.76,11.129,12.453,20.308,23.587,30.389,33.84,32.683,33.24,72.509,51.44,118.656,58.093,105.066,15.133,208.893-59.6,228.639-165.84,21.16-113.786-53.187-214.506-152.92-239.119-117.666-29.053-232.337,49.986-251.477,163.026-2.487,14.68-3.256,29.773-3.5,44.693-.52,31.133-.116,62.293-.172,93.44-.1,58.88-20.607,109.946-61.5,151.88-33.011,33.84-73.5,54.587-120.777,61.787-62.829,9.56-118.845-6.027-168.665-44.6-16.693-12.933-31.431-28.053-43.593-47.88" transform="translate(-730.322 2360.799)" fill="url(#linear-gradient)"/>
    </g>
  </g>
</svg>
